# Wavefront OBJ file for dungeon_brazier
mtllib dungeon_brazier.mtl
o dungeon_brazier

v 1.3000 0.0000 0.0000
v 1.3000 0.0000 0.2500
v 0.9192 0.9192 0.0000
v 0.9192 0.9192 0.2500
v 0.0000 1.3000 0.0000
v 0.0000 1.3000 0.2500
v -0.9192 0.9192 0.0000
v -0.9192 0.9192 0.2500
v -1.3000 0.0000 0.0000
v -1.3000 0.0000 0.2500
v -0.9192 -0.9192 0.0000
v -0.9192 -0.9192 0.2500
v -0.0000 -1.3000 0.0000
v -0.0000 -1.3000 0.2500
v 0.9192 -0.9192 0.0000
v 0.9192 -0.9192 0.2500
v 0.0000 0.0000 0.0000
v 0.0000 0.0000 0.2500
v 1.0500 0.0000 0.2500
v 1.0500 0.0000 0.5500
v 0.7425 0.7425 0.2500
v 0.7425 0.7425 0.5500
v 0.0000 1.0500 0.2500
v 0.0000 1.0500 0.5500
v -0.7425 0.7425 0.2500
v -0.7425 0.7425 0.5500
v -1.0500 0.0000 0.2500
v -1.0500 0.0000 0.5500
v -0.7425 -0.7425 0.2500
v -0.7425 -0.7425 0.5500
v -0.0000 -1.0500 0.2500
v -0.0000 -1.0500 0.5500
v 0.7425 -0.7425 0.2500
v 0.7425 -0.7425 0.5500
v 0.0000 0.0000 0.2500
v 0.0000 0.0000 0.5500
v 0.9000 0.0000 0.5500
v 0.5500 0.0000 0.9000
v 0.6364 0.6364 0.5500
v 0.3889 0.3889 0.9000
v 0.0000 0.9000 0.5500
v 0.0000 0.5500 0.9000
v -0.6364 0.6364 0.5500
v -0.3889 0.3889 0.9000
v -0.9000 0.0000 0.5500
v -0.5500 0.0000 0.9000
v -0.6364 -0.6364 0.5500
v -0.3889 -0.3889 0.9000
v -0.0000 -0.9000 0.5500
v -0.0000 -0.5500 0.9000
v 0.6364 -0.6364 0.5500
v 0.3889 -0.3889 0.9000
v 0.0000 0.0000 0.5500
v 0.0000 0.0000 0.9000
v 0.5500 0.0000 0.9000
v 0.5500 0.0000 1.8000
v 0.3889 0.3889 0.9000
v 0.3889 0.3889 1.8000
v 0.0000 0.5500 0.9000
v 0.0000 0.5500 1.8000
v -0.3889 0.3889 0.9000
v -0.3889 0.3889 1.8000
v -0.5500 0.0000 0.9000
v -0.5500 0.0000 1.8000
v -0.3889 -0.3889 0.9000
v -0.3889 -0.3889 1.8000
v -0.0000 -0.5500 0.9000
v -0.0000 -0.5500 1.8000
v 0.3889 -0.3889 0.9000
v 0.3889 -0.3889 1.8000
v 0.0000 0.0000 0.9000
v 0.0000 0.0000 1.8000
v 0.5500 0.0000 1.8000
v 0.8500 0.0000 2.2000
v 0.3889 0.3889 1.8000
v 0.6010 0.6010 2.2000
v 0.0000 0.5500 1.8000
v 0.0000 0.8500 2.2000
v -0.3889 0.3889 1.8000
v -0.6010 0.6010 2.2000
v -0.5500 0.0000 1.8000
v -0.8500 0.0000 2.2000
v -0.3889 -0.3889 1.8000
v -0.6010 -0.6010 2.2000
v -0.0000 -0.5500 1.8000
v -0.0000 -0.8500 2.2000
v 0.3889 -0.3889 1.8000
v 0.6010 -0.6010 2.2000
v 0.0000 0.0000 1.8000
v 0.0000 0.0000 2.2000
v 0.6500 0.0000 1.3000
v 0.6500 0.0000 1.4500
v 0.4596 0.4596 1.3000
v 0.4596 0.4596 1.4500
v 0.0000 0.6500 1.3000
v 0.0000 0.6500 1.4500
v -0.4596 0.4596 1.3000
v -0.4596 0.4596 1.4500
v -0.6500 0.0000 1.3000
v -0.6500 0.0000 1.4500
v -0.4596 -0.4596 1.3000
v -0.4596 -0.4596 1.4500
v -0.0000 -0.6500 1.3000
v -0.0000 -0.6500 1.4500
v 0.4596 -0.4596 1.3000
v 0.4596 -0.4596 1.4500
v 0.0000 0.0000 1.3000
v 0.0000 0.0000 1.4500
v 0.6400 -0.1500 1.9000
v 0.7600 -0.1500 1.9000
v 0.7600 0.1500 1.9000
v 0.6400 0.1500 1.9000
v 0.6400 -0.1500 2.5000
v 0.7600 -0.1500 2.5000
v 0.7600 0.1500 2.5000
v 0.6400 0.1500 2.5000
v -0.0600 0.6400 1.9000
v 0.0600 0.6400 1.9000
v 0.0600 0.7600 1.9000
v -0.0600 0.7600 1.9000
v -0.0600 0.6400 2.5000
v 0.0600 0.6400 2.5000
v 0.0600 0.7600 2.5000
v -0.0600 0.7600 2.5000
v -0.7600 -0.0600 1.9000
v -0.6400 -0.0600 1.9000
v -0.6400 0.0600 1.9000
v -0.7600 0.0600 1.9000
v -0.7600 -0.0600 2.5000
v -0.6400 -0.0600 2.5000
v -0.6400 0.0600 2.5000
v -0.7600 0.0600 2.5000
v -0.0600 -0.7600 1.9000
v 0.0600 -0.7600 1.9000
v 0.0600 -0.6400 1.9000
v -0.0600 -0.6400 1.9000
v -0.0600 -0.7600 2.5000
v 0.0600 -0.7600 2.5000
v 0.0600 -0.6400 2.5000
v -0.0600 -0.6400 2.5000
v 1.3500 0.0000 2.3000
v 1.3500 0.0000 3.1000
v 1.1500 0.0000 2.3000
v 1.1500 0.0000 3.1000
v 1.1691 0.6750 2.3000
v 1.1691 0.6750 3.1000
v 0.9959 0.5750 2.3000
v 0.9959 0.5750 3.1000
v 0.6750 1.1691 2.3000
v 0.6750 1.1691 3.1000
v 0.5750 0.9959 2.3000
v 0.5750 0.9959 3.1000
v 0.0000 1.3500 2.3000
v 0.0000 1.3500 3.1000
v 0.0000 1.1500 2.3000
v 0.0000 1.1500 3.1000
v -0.6750 1.1691 2.3000
v -0.6750 1.1691 3.1000
v -0.5750 0.9959 2.3000
v -0.5750 0.9959 3.1000
v -1.1691 0.6750 2.3000
v -1.1691 0.6750 3.1000
v -0.9959 0.5750 2.3000
v -0.9959 0.5750 3.1000
v -1.3500 0.0000 2.3000
v -1.3500 0.0000 3.1000
v -1.1500 0.0000 2.3000
v -1.1500 0.0000 3.1000
v -1.1691 -0.6750 2.3000
v -1.1691 -0.6750 3.1000
v -0.9959 -0.5750 2.3000
v -0.9959 -0.5750 3.1000
v -0.6750 -1.1691 2.3000
v -0.6750 -1.1691 3.1000
v -0.5750 -0.9959 2.3000
v -0.5750 -0.9959 3.1000
v -0.0000 -1.3500 2.3000
v -0.0000 -1.3500 3.1000
v -0.0000 -1.1500 2.3000
v -0.0000 -1.1500 3.1000
v 0.6750 -1.1691 2.3000
v 0.6750 -1.1691 3.1000
v 0.5750 -0.9959 2.3000
v 0.5750 -0.9959 3.1000
v 1.1691 -0.6750 2.3000
v 1.1691 -0.6750 3.1000
v 0.9959 -0.5750 2.3000
v 0.9959 -0.5750 3.1000
v 1.1800 0.0000 2.3000
v 1.1800 0.0000 2.4500
v 1.0219 0.5900 2.3000
v 1.0219 0.5900 2.4500
v 0.5900 1.0219 2.3000
v 0.5900 1.0219 2.4500
v 0.0000 1.1800 2.3000
v 0.0000 1.1800 2.4500
v -0.5900 1.0219 2.3000
v -0.5900 1.0219 2.4500
v -1.0219 0.5900 2.3000
v -1.0219 0.5900 2.4500
v -1.1800 0.0000 2.3000
v -1.1800 0.0000 2.4500
v -1.0219 -0.5900 2.3000
v -1.0219 -0.5900 2.4500
v -0.5900 -1.0219 2.3000
v -0.5900 -1.0219 2.4500
v -0.0000 -1.1800 2.3000
v -0.0000 -1.1800 2.4500
v 0.5900 -1.0219 2.3000
v 0.5900 -1.0219 2.4500
v 1.0219 -0.5900 2.3000
v 1.0219 -0.5900 2.4500
v 0.0000 0.0000 2.3000
v 0.0000 0.0000 2.4500
v 1.1700 0.0000 2.4500
v 1.1700 0.0000 2.6500
v 1.0132 0.5850 2.4500
v 1.0132 0.5850 2.6500
v 0.5850 1.0132 2.4500
v 0.5850 1.0132 2.6500
v 0.0000 1.1700 2.4500
v 0.0000 1.1700 2.6500
v -0.5850 1.0132 2.4500
v -0.5850 1.0132 2.6500
v -1.0132 0.5850 2.4500
v -1.0132 0.5850 2.6500
v -1.1700 0.0000 2.4500
v -1.1700 0.0000 2.6500
v -1.0132 -0.5850 2.4500
v -1.0132 -0.5850 2.6500
v -0.5850 -1.0132 2.4500
v -0.5850 -1.0132 2.6500
v -0.0000 -1.1700 2.4500
v -0.0000 -1.1700 2.6500
v 0.5850 -1.0132 2.4500
v 0.5850 -1.0132 2.6500
v 1.0132 -0.5850 2.4500
v 1.0132 -0.5850 2.6500
v 0.0000 0.0000 2.6500
v 0.9500 0.0000 2.6500
v 0.6391 0.4280 2.6500
v 0.1359 0.2645 2.6500
v 0.1359 -0.2645 2.6500
v 0.6391 -0.4280 2.6500
v 0.5000 0.0000 4.4500
v 0.5000 0.0000 2.6500
v 0.7000 0.4330 2.6500
v 0.3891 0.8610 2.6500
v -0.1141 0.6975 2.6500
v -0.1141 0.1685 2.6500
v 0.3891 0.0050 2.6500
v 0.2500 0.4330 4.4500
v 0.2500 0.4330 2.6500
v 0.2000 0.4330 2.6500
v -0.1109 0.8610 2.6500
v -0.6141 0.6975 2.6500
v -0.6141 0.1685 2.6500
v -0.1109 0.0050 2.6500
v -0.2500 0.4330 4.4500
v -0.2500 0.4330 2.6500
v -0.0500 0.0000 2.6500
v -0.3609 0.4280 2.6500
v -0.8641 0.2645 2.6500
v -0.8641 -0.2645 2.6500
v -0.3609 -0.4280 2.6500
v -0.5000 0.0000 4.4500
v -0.5000 0.0000 2.6500
v 0.2000 -0.4330 2.6500
v -0.1109 -0.0050 2.6500
v -0.6141 -0.1685 2.6500
v -0.6141 -0.6975 2.6500
v -0.1109 -0.8610 2.6500
v -0.2500 -0.4330 4.4500
v -0.2500 -0.4330 2.6500
v 0.7000 -0.4330 2.6500
v 0.3891 -0.0050 2.6500
v -0.1141 -0.1685 2.6500
v -0.1141 -0.6975 2.6500
v 0.3891 -0.8610 2.6500
v 0.2500 -0.4330 4.4500
v 0.2500 -0.4330 2.6500
v 0.5568 0.1768 2.6500
v 0.1768 0.5568 2.6500
v -0.2032 0.1768 2.6500
v 0.1768 -0.2032 2.6500
v 0.1768 0.1768 4.8500
v 0.1768 0.1768 2.6500
v 0.2032 0.1768 2.6500
v -0.1768 0.5568 2.6500
v -0.5568 0.1768 2.6500
v -0.1768 -0.2032 2.6500
v -0.1768 0.1768 4.8500
v -0.1768 0.1768 2.6500
v 0.2032 -0.1768 2.6500
v -0.1768 0.2032 2.6500
v -0.5568 -0.1768 2.6500
v -0.1768 -0.5568 2.6500
v -0.1768 -0.1768 4.8500
v -0.1768 -0.1768 2.6500
v 0.5568 -0.1768 2.6500
v 0.1768 0.2032 2.6500
v -0.2032 -0.1768 2.6500
v 0.1768 -0.5568 2.6500
v 0.1768 -0.1768 4.8500
v 0.1768 -0.1768 2.6500
v 0.3500 0.0000 2.6500
v 0.1750 0.3031 2.6500
v -0.1750 0.3031 2.6500
v -0.3500 0.0000 2.6500
v -0.1750 -0.3031 2.6500
v 0.1750 -0.3031 2.6500
v 0.0000 0.0000 5.2500
v 0.0000 0.0000 2.6500
v 0.4200 0.2000 4.8000
v 0.3000 0.3200 4.8000
v 0.1800 0.2000 4.8000
v 0.3000 0.0800 4.8000
v 0.3000 0.2000 5.0400
v 0.3000 0.2000 4.8000
v 0.4200 0.2000 4.5600
v 0.3000 0.3200 4.5600
v 0.1800 0.2000 4.5600
v 0.3000 0.0800 4.5600
v 0.3000 0.2000 4.8000
v 0.3000 0.2000 4.5600
v -0.1500 0.3500 5.1000
v -0.2500 0.4500 5.1000
v -0.3500 0.3500 5.1000
v -0.2500 0.2500 5.1000
v -0.2500 0.3500 5.3000
v -0.2500 0.3500 5.1000
v -0.1500 0.3500 4.9000
v -0.2500 0.4500 4.9000
v -0.3500 0.3500 4.9000
v -0.2500 0.2500 4.9000
v -0.2500 0.3500 5.1000
v -0.2500 0.3500 4.9000
v 0.2400 -0.4000 4.6000
v 0.1000 -0.2600 4.6000
v -0.0400 -0.4000 4.6000
v 0.1000 -0.5400 4.6000
v 0.1000 -0.4000 4.8800
v 0.1000 -0.4000 4.6000
v 0.2400 -0.4000 4.3200
v 0.1000 -0.2600 4.3200
v -0.0400 -0.4000 4.3200
v 0.1000 -0.5400 4.3200
v 0.1000 -0.4000 4.6000
v 0.1000 -0.4000 4.3200
v -0.2400 -0.2000 4.9000
v -0.3500 -0.0900 4.9000
v -0.4600 -0.2000 4.9000
v -0.3500 -0.3100 4.9000
v -0.3500 -0.2000 5.1200
v -0.3500 -0.2000 4.9000
v -0.2400 -0.2000 4.6800
v -0.3500 -0.0900 4.6800
v -0.4600 -0.2000 4.6800
v -0.3500 -0.3100 4.6800
v -0.3500 -0.2000 4.9000
v -0.3500 -0.2000 4.6800
v 0.1500 0.0000 5.4000
v 0.0000 0.1500 5.4000
v -0.1500 0.0000 5.4000
v -0.0000 -0.1500 5.4000
v 0.0000 0.0000 5.7000
v 0.0000 0.0000 5.4000
v 0.1500 0.0000 5.1000
v 0.0000 0.1500 5.1000
v -0.1500 0.0000 5.1000
v -0.0000 -0.1500 5.1000
v 0.0000 0.0000 5.4000
v 0.0000 0.0000 5.1000
vn 0.9239 0.3827 0.0000
vn 0.3827 0.9239 0.0000
vn -0.3827 0.9239 0.0000
vn -0.9239 0.3827 0.0000
vn -0.9239 -0.3827 0.0000
vn -0.3827 -0.9239 0.0000
vn 0.3827 -0.9239 0.0000
vn 0.9239 -0.3827 0.0000
vn 0.0000 0.0000 -1.0000
vn 0.0000 0.0000 1.0000
vn 0.9239 0.3827 0.0000
vn 0.3827 0.9239 0.0000
vn -0.3827 0.9239 0.0000
vn -0.9239 0.3827 0.0000
vn -0.9239 -0.3827 0.0000
vn -0.3827 -0.9239 0.0000
vn 0.3827 -0.9239 0.0000
vn 0.9239 -0.3827 0.0000
vn 0.0000 0.0000 -1.0000
vn 0.0000 0.0000 1.0000
vn 0.9239 0.3827 0.0000
vn 0.3827 0.9239 0.0000
vn -0.3827 0.9239 0.0000
vn -0.9239 0.3827 0.0000
vn -0.9239 -0.3827 0.0000
vn -0.3827 -0.9239 0.0000
vn 0.3827 -0.9239 0.0000
vn 0.9239 -0.3827 0.0000
vn 0.0000 0.0000 -1.0000
vn 0.0000 0.0000 1.0000
vn 0.9239 0.3827 0.0000
vn 0.3827 0.9239 0.0000
vn -0.3827 0.9239 0.0000
vn -0.9239 0.3827 0.0000
vn -0.9239 -0.3827 0.0000
vn -0.3827 -0.9239 0.0000
vn 0.3827 -0.9239 0.0000
vn 0.9239 -0.3827 0.0000
vn 0.0000 0.0000 -1.0000
vn 0.0000 0.0000 1.0000
vn 0.9239 0.3827 0.0000
vn 0.3827 0.9239 0.0000
vn -0.3827 0.9239 0.0000
vn -0.9239 0.3827 0.0000
vn -0.9239 -0.3827 0.0000
vn -0.3827 -0.9239 0.0000
vn 0.3827 -0.9239 0.0000
vn 0.9239 -0.3827 0.0000
vn 0.0000 0.0000 -1.0000
vn 0.0000 0.0000 1.0000
vn 0.9239 0.3827 0.0000
vn 0.3827 0.9239 0.0000
vn -0.3827 0.9239 0.0000
vn -0.9239 0.3827 0.0000
vn -0.9239 -0.3827 0.0000
vn -0.3827 -0.9239 0.0000
vn 0.3827 -0.9239 0.0000
vn 0.9239 -0.3827 0.0000
vn 0.0000 0.0000 -1.0000
vn 0.0000 0.0000 1.0000
vn 0.0000 0.0000 -1.0000
vn 0.0000 0.0000 1.0000
vn 0.0000 -1.0000 0.0000
vn 1.0000 0.0000 0.0000
vn 0.0000 1.0000 0.0000
vn -1.0000 0.0000 0.0000
vn 0.0000 0.0000 -1.0000
vn 0.0000 0.0000 1.0000
vn 0.0000 -1.0000 0.0000
vn 1.0000 0.0000 0.0000
vn 0.0000 1.0000 0.0000
vn -1.0000 0.0000 0.0000
vn 0.0000 0.0000 -1.0000
vn 0.0000 0.0000 1.0000
vn 0.0000 -1.0000 0.0000
vn 1.0000 0.0000 0.0000
vn 0.0000 1.0000 0.0000
vn -1.0000 0.0000 0.0000
vn 0.0000 0.0000 -1.0000
vn 0.0000 0.0000 1.0000
vn 0.0000 -1.0000 0.0000
vn 1.0000 0.0000 0.0000
vn 0.0000 1.0000 0.0000
vn -1.0000 0.0000 0.0000
vn 0.9659 0.2588 0.0000
vn 0.7071 0.7071 0.0000
vn 0.2588 0.9659 0.0000
vn -0.2588 0.9659 0.0000
vn -0.7071 0.7071 0.0000
vn -0.9659 0.2588 0.0000
vn -0.9659 -0.2588 0.0000
vn -0.7071 -0.7071 0.0000
vn -0.2588 -0.9659 0.0000
vn 0.2588 -0.9659 0.0000
vn 0.7071 -0.7071 0.0000
vn 0.9659 -0.2588 0.0000
vn -0.9659 -0.2588 0.0000
vn -0.7071 -0.7071 0.0000
vn -0.2588 -0.9659 0.0000
vn 0.2588 -0.9659 0.0000
vn 0.7071 -0.7071 0.0000
vn 0.9659 -0.2588 0.0000
vn 0.9659 0.2588 0.0000
vn 0.7071 0.7071 0.0000
vn 0.2588 0.9659 0.0000
vn -0.2588 0.9659 0.0000
vn -0.7071 0.7071 0.0000
vn -0.9659 0.2588 0.0000
vn 0.0000 0.0000 1.0000
vn 0.0000 0.0000 1.0000
vn 0.0000 0.0000 1.0000
vn 0.0000 0.0000 1.0000
vn 0.0000 0.0000 1.0000
vn 0.0000 0.0000 1.0000
vn 0.0000 0.0000 1.0000
vn 0.0000 0.0000 1.0000
vn 0.0000 0.0000 1.0000
vn 0.0000 0.0000 1.0000
vn 0.0000 0.0000 1.0000
vn 0.0000 0.0000 1.0000
vn 0.9659 0.2588 0.0000
vn 0.7071 0.7071 0.0000
vn 0.2588 0.9659 0.0000
vn -0.2588 0.9659 0.0000
vn -0.7071 0.7071 0.0000
vn -0.9659 0.2588 0.0000
vn -0.9659 -0.2588 0.0000
vn -0.7071 -0.7071 0.0000
vn -0.2588 -0.9659 0.0000
vn 0.2588 -0.9659 0.0000
vn 0.7071 -0.7071 0.0000
vn 0.9659 -0.2588 0.0000
vn 0.0000 0.0000 -1.0000
vn 0.0000 0.0000 1.0000
vn 0.9659 0.2588 0.0000
vn 0.7071 0.7071 0.0000
vn 0.2588 0.9659 0.0000
vn -0.2588 0.9659 0.0000
vn -0.7071 0.7071 0.0000
vn -0.9659 0.2588 0.0000
vn -0.9659 -0.2588 0.0000
vn -0.7071 -0.7071 0.0000
vn -0.2588 -0.9659 0.0000
vn 0.2588 -0.9659 0.0000
vn 0.7071 -0.7071 0.0000
vn 0.9659 -0.2588 0.0000
vn 0.0000 0.0000 1.0000
vn 0.7236 0.5257 0.4472
vn -0.2764 0.8507 0.4472
vn -0.8944 0.0000 0.4472
vn -0.2764 -0.8507 0.4472
vn 0.7236 -0.5257 0.4472
vn 0.0000 0.0000 -1.0000
vn 0.7236 0.5257 0.4472
vn -0.2764 0.8507 0.4472
vn -0.8944 0.0000 0.4472
vn -0.2764 -0.8507 0.4472
vn 0.7236 -0.5257 0.4472
vn 0.0000 0.0000 -1.0000
vn 0.7236 0.5257 0.4472
vn -0.2764 0.8507 0.4472
vn -0.8944 0.0000 0.4472
vn -0.2764 -0.8507 0.4472
vn 0.7236 -0.5257 0.4472
vn 0.0000 0.0000 -1.0000
vn 0.7236 0.5257 0.4472
vn -0.2764 0.8507 0.4472
vn -0.8944 0.0000 0.4472
vn -0.2764 -0.8507 0.4472
vn 0.7236 -0.5257 0.4472
vn 0.0000 0.0000 -1.0000
vn 0.7236 0.5257 0.4472
vn -0.2764 0.8507 0.4472
vn -0.8944 0.0000 0.4472
vn -0.2764 -0.8507 0.4472
vn 0.7236 -0.5257 0.4472
vn 0.0000 0.0000 -1.0000
vn 0.7236 0.5257 0.4472
vn -0.2764 0.8507 0.4472
vn -0.8944 0.0000 0.4472
vn -0.2764 -0.8507 0.4472
vn 0.7236 -0.5257 0.4472
vn 0.0000 0.0000 -1.0000
vn 0.6325 0.6325 0.4472
vn -0.6325 0.6325 0.4472
vn -0.6325 -0.6325 0.4472
vn 0.6325 -0.6325 0.4472
vn 0.0000 0.0000 -1.0000
vn 0.6325 0.6325 0.4472
vn -0.6325 0.6325 0.4472
vn -0.6325 -0.6325 0.4472
vn 0.6325 -0.6325 0.4472
vn 0.0000 0.0000 -1.0000
vn 0.6325 0.6325 0.4472
vn -0.6325 0.6325 0.4472
vn -0.6325 -0.6325 0.4472
vn 0.6325 -0.6325 0.4472
vn 0.0000 0.0000 -1.0000
vn 0.6325 0.6325 0.4472
vn -0.6325 0.6325 0.4472
vn -0.6325 -0.6325 0.4472
vn 0.6325 -0.6325 0.4472
vn 0.0000 0.0000 -1.0000
vn 0.7746 0.4472 0.4472
vn 0.0000 0.8944 0.4472
vn -0.7746 0.4472 0.4472
vn -0.7746 -0.4472 0.4472
vn -0.0000 -0.8944 0.4472
vn 0.7746 -0.4472 0.4472
vn 0.0000 0.0000 -1.0000
vn 0.6325 0.6325 0.4472
vn -0.6325 0.6325 0.4472
vn -0.6325 -0.6325 0.4472
vn 0.6325 -0.6325 0.4472
vn 0.0000 0.0000 -1.0000
vn 0.6325 0.6325 0.4472
vn -0.6325 0.6325 0.4472
vn -0.6325 -0.6325 0.4472
vn 0.6325 -0.6325 0.4472
vn 0.0000 0.0000 -1.0000
vn 0.6325 0.6325 0.4472
vn -0.6325 0.6325 0.4472
vn -0.6325 -0.6325 0.4472
vn 0.6325 -0.6325 0.4472
vn 0.0000 0.0000 -1.0000
vn 0.6325 0.6325 0.4472
vn -0.6325 0.6325 0.4472
vn -0.6325 -0.6325 0.4472
vn 0.6325 -0.6325 0.4472
vn 0.0000 0.0000 -1.0000
vn 0.6325 0.6325 0.4472
vn -0.6325 0.6325 0.4472
vn -0.6325 -0.6325 0.4472
vn 0.6325 -0.6325 0.4472
vn 0.0000 0.0000 -1.0000
vn 0.6325 0.6325 0.4472
vn -0.6325 0.6325 0.4472
vn -0.6325 -0.6325 0.4472
vn 0.6325 -0.6325 0.4472
vn 0.0000 0.0000 -1.0000
vn 0.6325 0.6325 0.4472
vn -0.6325 0.6325 0.4472
vn -0.6325 -0.6325 0.4472
vn 0.6325 -0.6325 0.4472
vn 0.0000 0.0000 -1.0000
vn 0.6325 0.6325 0.4472
vn -0.6325 0.6325 0.4472
vn -0.6325 -0.6325 0.4472
vn 0.6325 -0.6325 0.4472
vn 0.0000 0.0000 -1.0000
vn 0.6325 0.6325 0.4472
vn -0.6325 0.6325 0.4472
vn -0.6325 -0.6325 0.4472
vn 0.6325 -0.6325 0.4472
vn 0.0000 0.0000 -1.0000
vn 0.6325 0.6325 0.4472
vn -0.6325 0.6325 0.4472
vn -0.6325 -0.6325 0.4472
vn 0.6325 -0.6325 0.4472
vn 0.0000 0.0000 -1.0000
usemtl dungeon_stone
f 1//1 3//1 4//1 2//1
f 3//2 5//2 6//2 4//2
f 5//3 7//3 8//3 6//3
f 7//4 9//4 10//4 8//4
f 9//5 11//5 12//5 10//5
f 11//6 13//6 14//6 12//6
f 13//7 15//7 16//7 14//7
f 15//8 1//8 2//8 16//8
f 17//9 3//9 1//9
f 17//9 5//9 3//9
f 17//9 7//9 5//9
f 17//9 9//9 7//9
f 17//9 11//9 9//9
f 17//9 13//9 11//9
f 17//9 15//9 13//9
f 17//9 1//9 15//9
f 18//10 2//10 4//10
f 18//10 4//10 6//10
f 18//10 6//10 8//10
f 18//10 8//10 10//10
f 18//10 10//10 12//10
f 18//10 12//10 14//10
f 18//10 14//10 16//10
f 18//10 16//10 2//10
f 19//11 21//11 22//11 20//11
f 21//12 23//12 24//12 22//12
f 23//13 25//13 26//13 24//13
f 25//14 27//14 28//14 26//14
f 27//15 29//15 30//15 28//15
f 29//16 31//16 32//16 30//16
f 31//17 33//17 34//17 32//17
f 33//18 19//18 20//18 34//18
f 35//19 21//19 19//19
f 35//19 23//19 21//19
f 35//19 25//19 23//19
f 35//19 27//19 25//19
f 35//19 29//19 27//19
f 35//19 31//19 29//19
f 35//19 33//19 31//19
f 35//19 19//19 33//19
f 36//20 20//20 22//20
f 36//20 22//20 24//20
f 36//20 24//20 26//20
f 36//20 26//20 28//20
f 36//20 28//20 30//20
f 36//20 30//20 32//20
f 36//20 32//20 34//20
f 36//20 34//20 20//20
f 37//21 39//21 40//21 38//21
f 39//22 41//22 42//22 40//22
f 41//23 43//23 44//23 42//23
f 43//24 45//24 46//24 44//24
f 45//25 47//25 48//25 46//25
f 47//26 49//26 50//26 48//26
f 49//27 51//27 52//27 50//27
f 51//28 37//28 38//28 52//28
f 53//29 39//29 37//29
f 53//29 41//29 39//29
f 53//29 43//29 41//29
f 53//29 45//29 43//29
f 53//29 47//29 45//29
f 53//29 49//29 47//29
f 53//29 51//29 49//29
f 53//29 37//29 51//29
f 54//30 38//30 40//30
f 54//30 40//30 42//30
f 54//30 42//30 44//30
f 54//30 44//30 46//30
f 54//30 46//30 48//30
f 54//30 48//30 50//30
f 54//30 50//30 52//30
f 54//30 52//30 38//30
f 55//31 57//31 58//31 56//31
f 57//32 59//32 60//32 58//32
f 59//33 61//33 62//33 60//33
f 61//34 63//34 64//34 62//34
f 63//35 65//35 66//35 64//35
f 65//36 67//36 68//36 66//36
f 67//37 69//37 70//37 68//37
f 69//38 55//38 56//38 70//38
f 71//39 57//39 55//39
f 71//39 59//39 57//39
f 71//39 61//39 59//39
f 71//39 63//39 61//39
f 71//39 65//39 63//39
f 71//39 67//39 65//39
f 71//39 69//39 67//39
f 71//39 55//39 69//39
f 72//40 56//40 58//40
f 72//40 58//40 60//40
f 72//40 60//40 62//40
f 72//40 62//40 64//40
f 72//40 64//40 66//40
f 72//40 66//40 68//40
f 72//40 68//40 70//40
f 72//40 70//40 56//40
f 73//41 75//41 76//41 74//41
f 75//42 77//42 78//42 76//42
f 77//43 79//43 80//43 78//43
f 79//44 81//44 82//44 80//44
f 81//45 83//45 84//45 82//45
f 83//46 85//46 86//46 84//46
f 85//47 87//47 88//47 86//47
f 87//48 73//48 74//48 88//48
f 89//49 75//49 73//49
f 89//49 77//49 75//49
f 89//49 79//49 77//49
f 89//49 81//49 79//49
f 89//49 83//49 81//49
f 89//49 85//49 83//49
f 89//49 87//49 85//49
f 89//49 73//49 87//49
f 90//50 74//50 76//50
f 90//50 76//50 78//50
f 90//50 78//50 80//50
f 90//50 80//50 82//50
f 90//50 82//50 84//50
f 90//50 84//50 86//50
f 90//50 86//50 88//50
f 90//50 88//50 74//50
f 91//51 93//51 94//51 92//51
f 93//52 95//52 96//52 94//52
f 95//53 97//53 98//53 96//53
f 97//54 99//54 100//54 98//54
f 99//55 101//55 102//55 100//55
f 101//56 103//56 104//56 102//56
f 103//57 105//57 106//57 104//57
f 105//58 91//58 92//58 106//58
f 107//59 93//59 91//59
f 107//59 95//59 93//59
f 107//59 97//59 95//59
f 107//59 99//59 97//59
f 107//59 101//59 99//59
f 107//59 103//59 101//59
f 107//59 105//59 103//59
f 107//59 91//59 105//59
f 108//60 92//60 94//60
f 108//60 94//60 96//60
f 108//60 96//60 98//60
f 108//60 98//60 100//60
f 108//60 100//60 102//60
f 108//60 102//60 104//60
f 108//60 104//60 106//60
f 108//60 106//60 92//60
usemtl iron_dark
f 109//61 112//61 111//61 110//61
f 113//62 114//62 115//62 116//62
f 109//63 110//63 114//63 113//63
f 110//64 111//64 115//64 114//64
f 111//65 112//65 116//65 115//65
f 112//66 109//66 113//66 116//66
f 117//67 120//67 119//67 118//67
f 121//68 122//68 123//68 124//68
f 117//69 118//69 122//69 121//69
f 118//70 119//70 123//70 122//70
f 119//71 120//71 124//71 123//71
f 120//72 117//72 121//72 124//72
f 125//73 128//73 127//73 126//73
f 129//74 130//74 131//74 132//74
f 125//75 126//75 130//75 129//75
f 126//76 127//76 131//76 130//76
f 127//77 128//77 132//77 131//77
f 128//78 125//78 129//78 132//78
f 133//79 136//79 135//79 134//79
f 137//80 138//80 139//80 140//80
f 133//81 134//81 138//81 137//81
f 134//82 135//82 139//82 138//82
f 135//83 136//83 140//83 139//83
f 136//84 133//84 137//84 140//84
f 141//85 145//85 146//85 142//85
f 145//86 149//86 150//86 146//86
f 149//87 153//87 154//87 150//87
f 153//88 157//88 158//88 154//88
f 157//89 161//89 162//89 158//89
f 161//90 165//90 166//90 162//90
f 165//91 169//91 170//91 166//91
f 169//92 173//92 174//92 170//92
f 173//93 177//93 178//93 174//93
f 177//94 181//94 182//94 178//94
f 181//95 185//95 186//95 182//95
f 185//96 141//96 142//96 186//96
f 147//97 143//97 144//97 148//97
f 151//98 147//98 148//98 152//98
f 155//99 151//99 152//99 156//99
f 159//100 155//100 156//100 160//100
f 163//101 159//101 160//101 164//101
f 167//102 163//102 164//102 168//102
f 171//103 167//103 168//103 172//103
f 175//104 171//104 172//104 176//104
f 179//105 175//105 176//105 180//105
f 183//106 179//106 180//106 184//106
f 187//107 183//107 184//107 188//107
f 143//108 187//108 188//108 144//108
f 142//109 146//109 148//109 144//109
f 146//110 150//110 152//110 148//110
f 150//111 154//111 156//111 152//111
f 154//112 158//112 160//112 156//112
f 158//113 162//113 164//113 160//113
f 162//114 166//114 168//114 164//114
f 166//115 170//115 172//115 168//115
f 170//116 174//116 176//116 172//116
f 174//117 178//117 180//117 176//117
f 178//118 182//118 184//118 180//118
f 182//119 186//119 188//119 184//119
f 186//120 142//120 144//120 188//120
f 189//121 191//121 192//121 190//121
f 191//122 193//122 194//122 192//122
f 193//123 195//123 196//123 194//123
f 195//124 197//124 198//124 196//124
f 197//125 199//125 200//125 198//125
f 199//126 201//126 202//126 200//126
f 201//127 203//127 204//127 202//127
f 203//128 205//128 206//128 204//128
f 205//129 207//129 208//129 206//129
f 207//130 209//130 210//130 208//130
f 209//131 211//131 212//131 210//131
f 211//132 189//132 190//132 212//132
f 213//133 191//133 189//133
f 213//133 193//133 191//133
f 213//133 195//133 193//133
f 213//133 197//133 195//133
f 213//133 199//133 197//133
f 213//133 201//133 199//133
f 213//133 203//133 201//133
f 213//133 205//133 203//133
f 213//133 207//133 205//133
f 213//133 209//133 207//133
f 213//133 211//133 209//133
f 213//133 189//133 211//133
f 214//134 190//134 192//134
f 214//134 192//134 194//134
f 214//134 194//134 196//134
f 214//134 196//134 198//134
f 214//134 198//134 200//134
f 214//134 200//134 202//134
f 214//134 202//134 204//134
f 214//134 204//134 206//134
f 214//134 206//134 208//134
f 214//134 208//134 210//134
f 214//134 210//134 212//134
f 214//134 212//134 190//134
usemtl coal_ember
f 215//135 217//135 218//135 216//135
f 217//136 219//136 220//136 218//136
f 219//137 221//137 222//137 220//137
f 221//138 223//138 224//138 222//138
f 223//139 225//139 226//139 224//139
f 225//140 227//140 228//140 226//140
f 227//141 229//141 230//141 228//141
f 229//142 231//142 232//142 230//142
f 231//143 233//143 234//143 232//143
f 233//144 235//144 236//144 234//144
f 235//145 237//145 238//145 236//145
f 237//146 215//146 216//146 238//146
f 239//147 216//147 218//147
f 239//147 218//147 220//147
f 239//147 220//147 222//147
f 239//147 222//147 224//147
f 239//147 224//147 226//147
f 239//147 226//147 228//147
f 239//147 228//147 230//147
f 239//147 230//147 232//147
f 239//147 232//147 234//147
f 239//147 234//147 236//147
f 239//147 236//147 238//147
f 239//147 238//147 216//147
usemtl fire_orange
f 240//148 241//148 245//148
f 241//149 242//149 245//149
f 242//150 243//150 245//150
f 243//151 244//151 245//151
f 244//152 240//152 245//152
f 246//153 241//153 240//153
f 246//153 242//153 241//153
f 246//153 243//153 242//153
f 246//153 244//153 243//153
f 246//153 240//153 244//153
f 247//154 248//154 252//154
f 248//155 249//155 252//155
f 249//156 250//156 252//156
f 250//157 251//157 252//157
f 251//158 247//158 252//158
f 253//159 248//159 247//159
f 253//159 249//159 248//159
f 253//159 250//159 249//159
f 253//159 251//159 250//159
f 253//159 247//159 251//159
f 254//160 255//160 259//160
f 255//161 256//161 259//161
f 256//162 257//162 259//162
f 257//163 258//163 259//163
f 258//164 254//164 259//164
f 260//165 255//165 254//165
f 260//165 256//165 255//165
f 260//165 257//165 256//165
f 260//165 258//165 257//165
f 260//165 254//165 258//165
f 261//166 262//166 266//166
f 262//167 263//167 266//167
f 263//168 264//168 266//168
f 264//169 265//169 266//169
f 265//170 261//170 266//170
f 267//171 262//171 261//171
f 267//171 263//171 262//171
f 267//171 264//171 263//171
f 267//171 265//171 264//171
f 267//171 261//171 265//171
f 268//172 269//172 273//172
f 269//173 270//173 273//173
f 270//174 271//174 273//174
f 271//175 272//175 273//175
f 272//176 268//176 273//176
f 274//177 269//177 268//177
f 274//177 270//177 269//177
f 274//177 271//177 270//177
f 274//177 272//177 271//177
f 274//177 268//177 272//177
f 275//178 276//178 280//178
f 276//179 277//179 280//179
f 277//180 278//180 280//180
f 278//181 279//181 280//181
f 279//182 275//182 280//182
f 281//183 276//183 275//183
f 281//183 277//183 276//183
f 281//183 278//183 277//183
f 281//183 279//183 278//183
f 281//183 275//183 279//183
usemtl fire_yellow
f 282//184 283//184 286//184
f 283//185 284//185 286//185
f 284//186 285//186 286//186
f 285//187 282//187 286//187
f 287//188 283//188 282//188
f 287//188 284//188 283//188
f 287//188 285//188 284//188
f 287//188 282//188 285//188
f 288//189 289//189 292//189
f 289//190 290//190 292//190
f 290//191 291//191 292//191
f 291//192 288//192 292//192
f 293//193 289//193 288//193
f 293//193 290//193 289//193
f 293//193 291//193 290//193
f 293//193 288//193 291//193
f 294//194 295//194 298//194
f 295//195 296//195 298//195
f 296//196 297//196 298//196
f 297//197 294//197 298//197
f 299//198 295//198 294//198
f 299//198 296//198 295//198
f 299//198 297//198 296//198
f 299//198 294//198 297//198
f 300//199 301//199 304//199
f 301//200 302//200 304//200
f 302//201 303//201 304//201
f 303//202 300//202 304//202
f 305//203 301//203 300//203
f 305//203 302//203 301//203
f 305//203 303//203 302//203
f 305//203 300//203 303//203
usemtl fire_core
f 306//204 307//204 312//204
f 307//205 308//205 312//205
f 308//206 309//206 312//206
f 309//207 310//207 312//207
f 310//208 311//208 312//208
f 311//209 306//209 312//209
f 313//210 307//210 306//210
f 313//210 308//210 307//210
f 313//210 309//210 308//210
f 313//210 310//210 309//210
f 313//210 311//210 310//210
f 313//210 306//210 311//210
usemtl fire_yellow
f 314//211 315//211 318//211
f 315//212 316//212 318//212
f 316//213 317//213 318//213
f 317//214 314//214 318//214
f 319//215 315//215 314//215
f 319//215 316//215 315//215
f 319//215 317//215 316//215
f 319//215 314//215 317//215
usemtl fire_orange
f 320//216 321//216 324//216
f 321//217 322//217 324//217
f 322//218 323//218 324//218
f 323//219 320//219 324//219
f 325//220 321//220 320//220
f 325//220 322//220 321//220
f 325//220 323//220 322//220
f 325//220 320//220 323//220
usemtl fire_yellow
f 326//221 327//221 330//221
f 327//222 328//222 330//222
f 328//223 329//223 330//223
f 329//224 326//224 330//224
f 331//225 327//225 326//225
f 331//225 328//225 327//225
f 331//225 329//225 328//225
f 331//225 326//225 329//225
usemtl fire_orange
f 332//226 333//226 336//226
f 333//227 334//227 336//227
f 334//228 335//228 336//228
f 335//229 332//229 336//229
f 337//230 333//230 332//230
f 337//230 334//230 333//230
f 337//230 335//230 334//230
f 337//230 332//230 335//230
usemtl fire_yellow
f 338//231 339//231 342//231
f 339//232 340//232 342//232
f 340//233 341//233 342//233
f 341//234 338//234 342//234
f 343//235 339//235 338//235
f 343//235 340//235 339//235
f 343//235 341//235 340//235
f 343//235 338//235 341//235
usemtl fire_orange
f 344//236 345//236 348//236
f 345//237 346//237 348//237
f 346//238 347//238 348//238
f 347//239 344//239 348//239
f 349//240 345//240 344//240
f 349//240 346//240 345//240
f 349//240 347//240 346//240
f 349//240 344//240 347//240
usemtl fire_yellow
f 350//241 351//241 354//241
f 351//242 352//242 354//242
f 352//243 353//243 354//243
f 353//244 350//244 354//244
f 355//245 351//245 350//245
f 355//245 352//245 351//245
f 355//245 353//245 352//245
f 355//245 350//245 353//245
usemtl fire_orange
f 356//246 357//246 360//246
f 357//247 358//247 360//247
f 358//248 359//248 360//248
f 359//249 356//249 360//249
f 361//250 357//250 356//250
f 361//250 358//250 357//250
f 361//250 359//250 358//250
f 361//250 356//250 359//250
usemtl fire_yellow
f 362//251 363//251 366//251
f 363//252 364//252 366//252
f 364//253 365//253 366//253
f 365//254 362//254 366//254
f 367//255 363//255 362//255
f 367//255 364//255 363//255
f 367//255 365//255 364//255
f 367//255 362//255 365//255
usemtl fire_orange
f 368//256 369//256 372//256
f 369//257 370//257 372//257
f 370//258 371//258 372//258
f 371//259 368//259 372//259
f 373//260 369//260 368//260
f 373//260 370//260 369//260
f 373//260 371//260 370//260
f 373//260 368//260 371//260
