# Wavefront OBJ file for guild_clocktower
mtllib guild_clocktower.mtl
o guild_clocktower

v -2.6000 -2.6000 0.0000
v 2.6000 -2.6000 0.0000
v 2.6000 2.6000 0.0000
v -2.6000 2.6000 0.0000
v -2.6000 -2.6000 0.5000
v 2.6000 -2.6000 0.5000
v 2.6000 2.6000 0.5000
v -2.6000 2.6000 0.5000
v -2.2000 -2.2000 0.5000
v 2.2000 -2.2000 0.5000
v 2.2000 2.2000 0.5000
v -2.2000 2.2000 0.5000
v -2.2000 -2.2000 1.0000
v 2.2000 -2.2000 1.0000
v 2.2000 2.2000 1.0000
v -2.2000 2.2000 1.0000
v -2.0000 -2.0000 1.0000
v 2.0000 -2.0000 1.0000
v 2.0000 2.0000 1.0000
v -2.0000 2.0000 1.0000
v -2.0000 -2.0000 4.0000
v 2.0000 -2.0000 4.0000
v 2.0000 2.0000 4.0000
v -2.0000 2.0000 4.0000
v -0.7000 -2.0600 0.7000
v 0.7000 -2.0600 0.7000
v 0.7000 -1.9600 0.7000
v -0.7000 -1.9600 0.7000
v -0.7000 -2.0600 2.9000
v 0.7000 -2.0600 2.9000
v 0.7000 -1.9600 2.9000
v -0.7000 -1.9600 2.9000
v -0.6000 -2.0700 0.8000
v 0.6000 -2.0700 0.8000
v 0.6000 -1.9700 0.8000
v -0.6000 -1.9700 0.8000
v -0.6000 -2.0700 2.8000
v 0.6000 -2.0700 2.8000
v 0.6000 -1.9700 2.8000
v -0.6000 -1.9700 2.8000
v -2.4000 -2.4000 1.0000
v -1.8000 -2.4000 1.0000
v -1.8000 -1.8000 1.0000
v -2.4000 -1.8000 1.0000
v -2.4000 -2.4000 4.0000
v -1.8000 -2.4000 4.0000
v -1.8000 -1.8000 4.0000
v -2.4000 -1.8000 4.0000
v -2.4000 1.8000 1.0000
v -1.8000 1.8000 1.0000
v -1.8000 2.4000 1.0000
v -2.4000 2.4000 1.0000
v -2.4000 1.8000 4.0000
v -1.8000 1.8000 4.0000
v -1.8000 2.4000 4.0000
v -2.4000 2.4000 4.0000
v 1.8000 -2.4000 1.0000
v 2.4000 -2.4000 1.0000
v 2.4000 -1.8000 1.0000
v 1.8000 -1.8000 1.0000
v 1.8000 -2.4000 4.0000
v 2.4000 -2.4000 4.0000
v 2.4000 -1.8000 4.0000
v 1.8000 -1.8000 4.0000
v 1.8000 1.8000 1.0000
v 2.4000 1.8000 1.0000
v 2.4000 2.4000 1.0000
v 1.8000 2.4000 1.0000
v 1.8000 1.8000 4.0000
v 2.4000 1.8000 4.0000
v 2.4000 2.4000 4.0000
v 1.8000 2.4000 4.0000
v -2.1000 -2.1000 4.0000
v 2.1000 -2.1000 4.0000
v 2.1000 2.1000 4.0000
v -2.1000 2.1000 4.0000
v -2.1000 -2.1000 4.3000
v 2.1000 -2.1000 4.3000
v 2.1000 2.1000 4.3000
v -2.1000 2.1000 4.3000
v 2.4000 0.0000 4.3000
v 2.1000 0.0000 11.0000
v 0.0000 2.4000 4.3000
v 0.0000 2.1000 11.0000
v -2.4000 0.0000 4.3000
v -2.1000 0.0000 11.0000
v -0.0000 -2.4000 4.3000
v -0.0000 -2.1000 11.0000
v 0.0000 0.0000 4.3000
v 0.0000 0.0000 11.0000
v 1.8763 1.6263 4.3000
v 1.8263 1.6263 11.0000
v 1.6263 1.8763 4.3000
v 1.6263 1.8263 11.0000
v 1.3763 1.6263 4.3000
v 1.4263 1.6263 11.0000
v 1.6263 1.3763 4.3000
v 1.6263 1.4263 11.0000
v 1.6263 1.6263 4.3000
v 1.6263 1.6263 11.0000
v -1.3763 1.6263 4.3000
v -1.4263 1.6263 11.0000
v -1.6263 1.8763 4.3000
v -1.6263 1.8263 11.0000
v -1.8763 1.6263 4.3000
v -1.8263 1.6263 11.0000
v -1.6263 1.3763 4.3000
v -1.6263 1.4263 11.0000
v -1.6263 1.6263 4.3000
v -1.6263 1.6263 11.0000
v -1.3763 -1.6263 4.3000
v -1.4263 -1.6263 11.0000
v -1.6263 -1.3763 4.3000
v -1.6263 -1.4263 11.0000
v -1.8763 -1.6263 4.3000
v -1.8263 -1.6263 11.0000
v -1.6263 -1.8763 4.3000
v -1.6263 -1.8263 11.0000
v -1.6263 -1.6263 4.3000
v -1.6263 -1.6263 11.0000
v 1.8763 -1.6263 4.3000
v 1.8263 -1.6263 11.0000
v 1.6263 -1.3763 4.3000
v 1.6263 -1.4263 11.0000
v 1.3763 -1.6263 4.3000
v 1.4263 -1.6263 11.0000
v 1.6263 -1.8763 4.3000
v 1.6263 -1.8263 11.0000
v 1.6263 -1.6263 4.3000
v 1.6263 -1.6263 11.0000
v 1.7500 -0.0500 6.9000
v 2.1500 -0.0500 6.9000
v 2.1500 0.0500 6.9000
v 1.7500 0.0500 6.9000
v 1.7500 -0.0500 8.1000
v 2.1500 -0.0500 8.1000
v 2.1500 0.0500 8.1000
v 1.7500 0.0500 8.1000
v -0.2000 1.7500 6.9000
v 0.2000 1.7500 6.9000
v 0.2000 2.1500 6.9000
v -0.2000 2.1500 6.9000
v -0.2000 1.7500 8.1000
v 0.2000 1.7500 8.1000
v 0.2000 2.1500 8.1000
v -0.2000 2.1500 8.1000
v -2.1500 -0.2000 6.9000
v -1.7500 -0.2000 6.9000
v -1.7500 0.2000 6.9000
v -2.1500 0.2000 6.9000
v -2.1500 -0.2000 8.1000
v -1.7500 -0.2000 8.1000
v -1.7500 0.2000 8.1000
v -2.1500 0.2000 8.1000
v -0.2000 -2.1500 6.9000
v 0.2000 -2.1500 6.9000
v 0.2000 -1.7500 6.9000
v -0.2000 -1.7500 6.9000
v -0.2000 -2.1500 8.1000
v 0.2000 -2.1500 8.1000
v 0.2000 -1.7500 8.1000
v -0.2000 -1.7500 8.1000
v -2.1000 -2.1000 11.0000
v 2.1000 -2.1000 11.0000
v 2.1000 2.1000 11.0000
v -2.1000 2.1000 11.0000
v -2.1000 -2.1000 11.4000
v 2.1000 -2.1000 11.4000
v 2.1000 2.1000 11.4000
v -2.1000 2.1000 11.4000
v 2.3000 0.0000 11.4000
v 2.3000 0.0000 15.0000
v 1.6263 1.6263 11.4000
v 1.6263 1.6263 15.0000
v 0.0000 2.3000 11.4000
v 0.0000 2.3000 15.0000
v -1.6263 1.6263 11.4000
v -1.6263 1.6263 15.0000
v -2.3000 0.0000 11.4000
v -2.3000 0.0000 15.0000
v -1.6263 -1.6263 11.4000
v -1.6263 -1.6263 15.0000
v -0.0000 -2.3000 11.4000
v -0.0000 -2.3000 15.0000
v 1.6263 -1.6263 11.4000
v 1.6263 -1.6263 15.0000
v 0.0000 0.0000 11.4000
v 0.0000 0.0000 15.0000
v 2.4500 0.0000 11.4000
v 2.4500 0.0000 15.0000
v 1.7324 1.7324 11.4000
v 1.7324 1.7324 15.0000
v 0.0000 2.4500 11.4000
v 0.0000 2.4500 15.0000
v -1.7324 1.7324 11.4000
v -1.7324 1.7324 15.0000
v -2.4500 0.0000 11.4000
v -2.4500 0.0000 15.0000
v -1.7324 -1.7324 11.4000
v -1.7324 -1.7324 15.0000
v -0.0000 -2.4500 11.4000
v -0.0000 -2.4500 15.0000
v 1.7324 -1.7324 11.4000
v 1.7324 -1.7324 15.0000
v 3.4000 0.0000 12.1000
v 3.4000 0.0000 14.3000
v 3.2459 0.5750 12.1000
v 3.2459 0.5750 14.3000
v 2.8250 0.9959 12.1000
v 2.8250 0.9959 14.3000
v 2.2500 1.1500 12.1000
v 2.2500 1.1500 14.3000
v 1.6750 0.9959 12.1000
v 1.6750 0.9959 14.3000
v 1.2541 0.5750 12.1000
v 1.2541 0.5750 14.3000
v 1.1000 0.0000 12.1000
v 1.1000 0.0000 14.3000
v 1.2541 -0.5750 12.1000
v 1.2541 -0.5750 14.3000
v 1.6750 -0.9959 12.1000
v 1.6750 -0.9959 14.3000
v 2.2500 -1.1500 12.1000
v 2.2500 -1.1500 14.3000
v 2.8250 -0.9959 12.1000
v 2.8250 -0.9959 14.3000
v 3.2459 -0.5750 12.1000
v 3.2459 -0.5750 14.3000
v 2.2500 0.0000 12.1000
v 2.2500 0.0000 14.3000
v 3.2800 0.0000 12.2500
v 3.2800 0.0000 14.1500
v 3.1487 0.4900 12.2500
v 3.1487 0.4900 14.1500
v 2.7900 0.8487 12.2500
v 2.7900 0.8487 14.1500
v 2.3000 0.9800 12.2500
v 2.3000 0.9800 14.1500
v 1.8100 0.8487 12.2500
v 1.8100 0.8487 14.1500
v 1.4513 0.4900 12.2500
v 1.4513 0.4900 14.1500
v 1.3200 0.0000 12.2500
v 1.3200 0.0000 14.1500
v 1.4513 -0.4900 12.2500
v 1.4513 -0.4900 14.1500
v 1.8100 -0.8487 12.2500
v 1.8100 -0.8487 14.1500
v 2.3000 -0.9800 12.2500
v 2.3000 -0.9800 14.1500
v 2.7900 -0.8487 12.2500
v 2.7900 -0.8487 14.1500
v 3.1487 -0.4900 12.2500
v 3.1487 -0.4900 14.1500
v 2.3000 0.0000 12.2500
v 2.3000 0.0000 14.1500
v 2.3000 -0.2500 13.3600
v 2.4000 -0.2500 13.3600
v 2.4000 0.2500 13.3600
v 2.3000 0.2500 13.3600
v 2.3000 -0.2500 13.4400
v 2.4000 -0.2500 13.4400
v 2.4000 0.2500 13.4400
v 2.3000 0.2500 13.4400
v 2.3000 0.0000 13.0600
v 2.4000 0.0000 13.0600
v 2.4000 0.6000 13.0600
v 2.3000 0.6000 13.0600
v 2.3000 0.0000 13.1400
v 2.4000 0.0000 13.1400
v 2.4000 0.6000 13.1400
v 2.3000 0.6000 13.1400
v 1.1500 2.2500 12.1000
v 1.1500 2.2500 14.3000
v 0.9959 2.8250 12.1000
v 0.9959 2.8250 14.3000
v 0.5750 3.2459 12.1000
v 0.5750 3.2459 14.3000
v 0.0000 3.4000 12.1000
v 0.0000 3.4000 14.3000
v -0.5750 3.2459 12.1000
v -0.5750 3.2459 14.3000
v -0.9959 2.8250 12.1000
v -0.9959 2.8250 14.3000
v -1.1500 2.2500 12.1000
v -1.1500 2.2500 14.3000
v -0.9959 1.6750 12.1000
v -0.9959 1.6750 14.3000
v -0.5750 1.2541 12.1000
v -0.5750 1.2541 14.3000
v -0.0000 1.1000 12.1000
v -0.0000 1.1000 14.3000
v 0.5750 1.2541 12.1000
v 0.5750 1.2541 14.3000
v 0.9959 1.6750 12.1000
v 0.9959 1.6750 14.3000
v 0.0000 2.2500 12.1000
v 0.0000 2.2500 14.3000
v 0.9800 2.3000 12.2500
v 0.9800 2.3000 14.1500
v 0.8487 2.7900 12.2500
v 0.8487 2.7900 14.1500
v 0.4900 3.1487 12.2500
v 0.4900 3.1487 14.1500
v 0.0000 3.2800 12.2500
v 0.0000 3.2800 14.1500
v -0.4900 3.1487 12.2500
v -0.4900 3.1487 14.1500
v -0.8487 2.7900 12.2500
v -0.8487 2.7900 14.1500
v -0.9800 2.3000 12.2500
v -0.9800 2.3000 14.1500
v -0.8487 1.8100 12.2500
v -0.8487 1.8100 14.1500
v -0.4900 1.4513 12.2500
v -0.4900 1.4513 14.1500
v -0.0000 1.3200 12.2500
v -0.0000 1.3200 14.1500
v 0.4900 1.4513 12.2500
v 0.4900 1.4513 14.1500
v 0.8487 1.8100 12.2500
v 0.8487 1.8100 14.1500
v 0.0000 2.3000 12.2500
v 0.0000 2.3000 14.1500
v -0.0500 2.3000 13.3600
v 0.0500 2.3000 13.3600
v 0.0500 2.4000 13.3600
v -0.0500 2.4000 13.3600
v -0.0500 2.3000 13.4400
v 0.0500 2.3000 13.4400
v 0.0500 2.4000 13.4400
v -0.0500 2.4000 13.4400
v 0.2500 2.3000 13.0600
v 0.3500 2.3000 13.0600
v 0.3500 2.4000 13.0600
v 0.2500 2.4000 13.0600
v 0.2500 2.3000 13.1400
v 0.3500 2.3000 13.1400
v 0.3500 2.4000 13.1400
v 0.2500 2.4000 13.1400
v -1.1000 0.0000 12.1000
v -1.1000 0.0000 14.3000
v -1.2541 0.5750 12.1000
v -1.2541 0.5750 14.3000
v -1.6750 0.9959 12.1000
v -1.6750 0.9959 14.3000
v -2.2500 1.1500 12.1000
v -2.2500 1.1500 14.3000
v -2.8250 0.9959 12.1000
v -2.8250 0.9959 14.3000
v -3.2459 0.5750 12.1000
v -3.2459 0.5750 14.3000
v -3.4000 0.0000 12.1000
v -3.4000 0.0000 14.3000
v -3.2459 -0.5750 12.1000
v -3.2459 -0.5750 14.3000
v -2.8250 -0.9959 12.1000
v -2.8250 -0.9959 14.3000
v -2.2500 -1.1500 12.1000
v -2.2500 -1.1500 14.3000
v -1.6750 -0.9959 12.1000
v -1.6750 -0.9959 14.3000
v -1.2541 -0.5750 12.1000
v -1.2541 -0.5750 14.3000
v -2.2500 0.0000 12.1000
v -2.2500 0.0000 14.3000
v -1.3200 0.0000 12.2500
v -1.3200 0.0000 14.1500
v -1.4513 0.4900 12.2500
v -1.4513 0.4900 14.1500
v -1.8100 0.8487 12.2500
v -1.8100 0.8487 14.1500
v -2.3000 0.9800 12.2500
v -2.3000 0.9800 14.1500
v -2.7900 0.8487 12.2500
v -2.7900 0.8487 14.1500
v -3.1487 0.4900 12.2500
v -3.1487 0.4900 14.1500
v -3.2800 0.0000 12.2500
v -3.2800 0.0000 14.1500
v -3.1487 -0.4900 12.2500
v -3.1487 -0.4900 14.1500
v -2.7900 -0.8487 12.2500
v -2.7900 -0.8487 14.1500
v -2.3000 -0.9800 12.2500
v -2.3000 -0.9800 14.1500
v -1.8100 -0.8487 12.2500
v -1.8100 -0.8487 14.1500
v -1.4513 -0.4900 12.2500
v -1.4513 -0.4900 14.1500
v -2.3000 0.0000 12.2500
v -2.3000 0.0000 14.1500
v -2.4000 -0.0500 13.3600
v -2.3000 -0.0500 13.3600
v -2.3000 0.0500 13.3600
v -2.4000 0.0500 13.3600
v -2.4000 -0.0500 13.4400
v -2.3000 -0.0500 13.4400
v -2.3000 0.0500 13.4400
v -2.4000 0.0500 13.4400
v -2.4000 -0.3500 13.0600
v -2.3000 -0.3500 13.0600
v -2.3000 -0.2500 13.0600
v -2.4000 -0.2500 13.0600
v -2.4000 -0.3500 13.1400
v -2.3000 -0.3500 13.1400
v -2.3000 -0.2500 13.1400
v -2.4000 -0.2500 13.1400
v 1.1500 -2.2500 12.1000
v 1.1500 -2.2500 14.3000
v 0.9959 -1.6750 12.1000
v 0.9959 -1.6750 14.3000
v 0.5750 -1.2541 12.1000
v 0.5750 -1.2541 14.3000
v -0.0000 -1.1000 12.1000
v -0.0000 -1.1000 14.3000
v -0.5750 -1.2541 12.1000
v -0.5750 -1.2541 14.3000
v -0.9959 -1.6750 12.1000
v -0.9959 -1.6750 14.3000
v -1.1500 -2.2500 12.1000
v -1.1500 -2.2500 14.3000
v -0.9959 -2.8250 12.1000
v -0.9959 -2.8250 14.3000
v -0.5750 -3.2459 12.1000
v -0.5750 -3.2459 14.3000
v -0.0000 -3.4000 12.1000
v -0.0000 -3.4000 14.3000
v 0.5750 -3.2459 12.1000
v 0.5750 -3.2459 14.3000
v 0.9959 -2.8250 12.1000
v 0.9959 -2.8250 14.3000
v -0.0000 -2.2500 12.1000
v -0.0000 -2.2500 14.3000
v 0.9800 -2.3000 12.2500
v 0.9800 -2.3000 14.1500
v 0.8487 -1.8100 12.2500
v 0.8487 -1.8100 14.1500
v 0.4900 -1.4513 12.2500
v 0.4900 -1.4513 14.1500
v -0.0000 -1.3200 12.2500
v -0.0000 -1.3200 14.1500
v -0.4900 -1.4513 12.2500
v -0.4900 -1.4513 14.1500
v -0.8487 -1.8100 12.2500
v -0.8487 -1.8100 14.1500
v -0.9800 -2.3000 12.2500
v -0.9800 -2.3000 14.1500
v -0.8487 -2.7900 12.2500
v -0.8487 -2.7900 14.1500
v -0.4900 -3.1487 12.2500
v -0.4900 -3.1487 14.1500
v -0.0000 -3.2800 12.2500
v -0.0000 -3.2800 14.1500
v 0.4900 -3.1487 12.2500
v 0.4900 -3.1487 14.1500
v 0.8487 -2.7900 12.2500
v 0.8487 -2.7900 14.1500
v -0.0000 -2.3000 12.2500
v -0.0000 -2.3000 14.1500
v -0.0500 -2.4000 13.3600
v 0.0500 -2.4000 13.3600
v 0.0500 -2.3000 13.3600
v -0.0500 -2.3000 13.3600
v -0.0500 -2.4000 13.4400
v 0.0500 -2.4000 13.4400
v 0.0500 -2.3000 13.4400
v -0.0500 -2.3000 13.4400
v -0.3500 -2.4000 13.0600
v -0.2500 -2.4000 13.0600
v -0.2500 -2.3000 13.0600
v -0.3500 -2.3000 13.0600
v -0.3500 -2.4000 13.1400
v -0.2500 -2.4000 13.1400
v -0.2500 -2.3000 13.1400
v -0.3500 -2.3000 13.1400
v 2.6000 0.0000 15.0000
v 2.6000 0.0000 15.4000
v 1.8385 1.8385 15.0000
v 1.8385 1.8385 15.4000
v 0.0000 2.6000 15.0000
v 0.0000 2.6000 15.4000
v -1.8385 1.8385 15.0000
v -1.8385 1.8385 15.4000
v -2.6000 0.0000 15.0000
v -2.6000 0.0000 15.4000
v -1.8385 -1.8385 15.0000
v -1.8385 -1.8385 15.4000
v -0.0000 -2.6000 15.0000
v -0.0000 -2.6000 15.4000
v 1.8385 -1.8385 15.0000
v 1.8385 -1.8385 15.4000
v 0.0000 0.0000 15.0000
v 0.0000 0.0000 15.4000
v 2.5000 0.0000 15.4000
v 1.7678 1.7678 15.4000
v 0.0000 2.5000 15.4000
v -1.7678 1.7678 15.4000
v -2.5000 0.0000 15.4000
v -1.7678 -1.7678 15.4000
v -0.0000 -2.5000 15.4000
v 1.7678 -1.7678 15.4000
v 0.0000 0.0000 20.5000
v 0.0000 0.0000 15.4000
v 1.5000 -0.3000 16.1000
v 2.1000 -0.3000 16.1000
v 2.1000 0.3000 16.1000
v 1.5000 0.3000 16.1000
v 1.5000 -0.3000 16.9000
v 2.1000 -0.3000 16.9000
v 2.1000 0.3000 16.9000
v 1.5000 0.3000 16.9000
v -0.3000 1.5000 16.1000
v 0.3000 1.5000 16.1000
v 0.3000 2.1000 16.1000
v -0.3000 2.1000 16.1000
v -0.3000 1.5000 16.9000
v 0.3000 1.5000 16.9000
v 0.3000 2.1000 16.9000
v -0.3000 2.1000 16.9000
v -2.1000 -0.3000 16.1000
v -1.5000 -0.3000 16.1000
v -1.5000 0.3000 16.1000
v -2.1000 0.3000 16.1000
v -2.1000 -0.3000 16.9000
v -1.5000 -0.3000 16.9000
v -1.5000 0.3000 16.9000
v -2.1000 0.3000 16.9000
v -0.3000 -2.1000 16.1000
v 0.3000 -2.1000 16.1000
v 0.3000 -1.5000 16.1000
v -0.3000 -1.5000 16.1000
v -0.3000 -2.1000 16.9000
v 0.3000 -2.1000 16.9000
v 0.3000 -1.5000 16.9000
v -0.3000 -1.5000 16.9000
v 0.1000 0.0000 20.5000
v 0.0500 0.0000 22.0000
v 0.0500 0.0866 20.5000
v 0.0250 0.0433 22.0000
v -0.0500 0.0866 20.5000
v -0.0250 0.0433 22.0000
v -0.1000 0.0000 20.5000
v -0.0500 0.0000 22.0000
v -0.0500 -0.0866 20.5000
v -0.0250 -0.0433 22.0000
v 0.0500 -0.0866 20.5000
v 0.0250 -0.0433 22.0000
v 0.0000 0.0000 20.5000
v 0.0000 0.0000 22.0000
v 0.3000 0.0000 21.3000
v 0.3000 0.0000 21.6000
v 0.2121 0.2121 21.3000
v 0.2121 0.2121 21.6000
v 0.0000 0.3000 21.3000
v 0.0000 0.3000 21.6000
v -0.2121 0.2121 21.3000
v -0.2121 0.2121 21.6000
v -0.3000 0.0000 21.3000
v -0.3000 0.0000 21.6000
v -0.2121 -0.2121 21.3000
v -0.2121 -0.2121 21.6000
v -0.0000 -0.3000 21.3000
v -0.0000 -0.3000 21.6000
v 0.2121 -0.2121 21.3000
v 0.2121 -0.2121 21.6000
v 0.0000 0.0000 21.3000
v 0.0000 0.0000 21.6000
v -0.6000 -0.0300 21.7000
v 0.6000 -0.0300 21.7000
v 0.6000 0.0300 21.7000
v -0.6000 0.0300 21.7000
v -0.6000 -0.0300 21.9000
v 0.6000 -0.0300 21.9000
v 0.6000 0.0300 21.9000
v -0.6000 0.0300 21.9000
v -0.0300 -0.6000 21.7000
v 0.0300 -0.6000 21.7000
v 0.0300 0.6000 21.7000
v -0.0300 0.6000 21.7000
v -0.0300 -0.6000 21.9000
v 0.0300 -0.6000 21.9000
v 0.0300 0.6000 21.9000
v -0.0300 0.6000 21.9000
vn 0.0000 0.0000 -1.0000
vn 0.0000 0.0000 1.0000
vn 0.0000 -1.0000 0.0000
vn 1.0000 0.0000 0.0000
vn 0.0000 1.0000 0.0000
vn -1.0000 0.0000 0.0000
vn 0.0000 0.0000 -1.0000
vn 0.0000 0.0000 1.0000
vn 0.0000 -1.0000 0.0000
vn 1.0000 0.0000 0.0000
vn 0.0000 1.0000 0.0000
vn -1.0000 0.0000 0.0000
vn 0.0000 0.0000 -1.0000
vn 0.0000 0.0000 1.0000
vn 0.0000 -1.0000 0.0000
vn 1.0000 0.0000 0.0000
vn 0.0000 1.0000 0.0000
vn -1.0000 0.0000 0.0000
vn 0.0000 0.0000 -1.0000
vn 0.0000 0.0000 1.0000
vn 0.0000 -1.0000 0.0000
vn 1.0000 0.0000 0.0000
vn 0.0000 1.0000 0.0000
vn -1.0000 0.0000 0.0000
vn 0.0000 0.0000 -1.0000
vn 0.0000 0.0000 1.0000
vn 0.0000 -1.0000 0.0000
vn 1.0000 0.0000 0.0000
vn 0.0000 1.0000 0.0000
vn -1.0000 0.0000 0.0000
vn 0.0000 0.0000 -1.0000
vn 0.0000 0.0000 1.0000
vn 0.0000 -1.0000 0.0000
vn 1.0000 0.0000 0.0000
vn 0.0000 1.0000 0.0000
vn -1.0000 0.0000 0.0000
vn 0.0000 0.0000 -1.0000
vn 0.0000 0.0000 1.0000
vn 0.0000 -1.0000 0.0000
vn 1.0000 0.0000 0.0000
vn 0.0000 1.0000 0.0000
vn -1.0000 0.0000 0.0000
vn 0.0000 0.0000 -1.0000
vn 0.0000 0.0000 1.0000
vn 0.0000 -1.0000 0.0000
vn 1.0000 0.0000 0.0000
vn 0.0000 1.0000 0.0000
vn -1.0000 0.0000 0.0000
vn 0.0000 0.0000 -1.0000
vn 0.0000 0.0000 1.0000
vn 0.0000 -1.0000 0.0000
vn 1.0000 0.0000 0.0000
vn 0.0000 1.0000 0.0000
vn -1.0000 0.0000 0.0000
vn 0.0000 0.0000 -1.0000
vn 0.0000 0.0000 1.0000
vn 0.0000 -1.0000 0.0000
vn 1.0000 0.0000 0.0000
vn 0.0000 1.0000 0.0000
vn -1.0000 0.0000 0.0000
vn 0.7071 0.7071 0.0000
vn -0.7071 0.7071 0.0000
vn -0.7071 -0.7071 0.0000
vn 0.7071 -0.7071 0.0000
vn 0.0000 0.0000 -1.0000
vn 0.0000 0.0000 1.0000
vn 0.7071 0.7071 0.0000
vn -0.7071 0.7071 0.0000
vn -0.7071 -0.7071 0.0000
vn 0.7071 -0.7071 0.0000
vn 0.0000 0.0000 -1.0000
vn 0.0000 0.0000 1.0000
vn 0.7071 0.7071 0.0000
vn -0.7071 0.7071 0.0000
vn -0.7071 -0.7071 0.0000
vn 0.7071 -0.7071 0.0000
vn 0.0000 0.0000 -1.0000
vn 0.0000 0.0000 1.0000
vn 0.7071 0.7071 0.0000
vn -0.7071 0.7071 0.0000
vn -0.7071 -0.7071 0.0000
vn 0.7071 -0.7071 0.0000
vn 0.0000 0.0000 -1.0000
vn 0.0000 0.0000 1.0000
vn 0.7071 0.7071 0.0000
vn -0.7071 0.7071 0.0000
vn -0.7071 -0.7071 0.0000
vn 0.7071 -0.7071 0.0000
vn 0.0000 0.0000 -1.0000
vn 0.0000 0.0000 1.0000
vn 0.0000 0.0000 -1.0000
vn 0.0000 0.0000 1.0000
vn 0.0000 -1.0000 0.0000
vn 1.0000 0.0000 0.0000
vn 0.0000 1.0000 0.0000
vn -1.0000 0.0000 0.0000
vn 0.0000 0.0000 -1.0000
vn 0.0000 0.0000 1.0000
vn 0.0000 -1.0000 0.0000
vn 1.0000 0.0000 0.0000
vn 0.0000 1.0000 0.0000
vn -1.0000 0.0000 0.0000
vn 0.0000 0.0000 -1.0000
vn 0.0000 0.0000 1.0000
vn 0.0000 -1.0000 0.0000
vn 1.0000 0.0000 0.0000
vn 0.0000 1.0000 0.0000
vn -1.0000 0.0000 0.0000
vn 0.0000 0.0000 -1.0000
vn 0.0000 0.0000 1.0000
vn 0.0000 -1.0000 0.0000
vn 1.0000 0.0000 0.0000
vn 0.0000 1.0000 0.0000
vn -1.0000 0.0000 0.0000
vn 0.0000 0.0000 -1.0000
vn 0.0000 0.0000 1.0000
vn 0.0000 -1.0000 0.0000
vn 1.0000 0.0000 0.0000
vn 0.0000 1.0000 0.0000
vn -1.0000 0.0000 0.0000
vn 0.9239 0.3827 0.0000
vn 0.3827 0.9239 0.0000
vn -0.3827 0.9239 0.0000
vn -0.9239 0.3827 0.0000
vn -0.9239 -0.3827 0.0000
vn -0.3827 -0.9239 0.0000
vn 0.3827 -0.9239 0.0000
vn 0.9239 -0.3827 0.0000
vn 0.0000 0.0000 -1.0000
vn 0.0000 0.0000 1.0000
vn 0.9239 0.3827 0.0000
vn 0.3827 0.9239 0.0000
vn -0.3827 0.9239 0.0000
vn -0.9239 0.3827 0.0000
vn -0.9239 -0.3827 0.0000
vn -0.3827 -0.9239 0.0000
vn 0.3827 -0.9239 0.0000
vn 0.9239 -0.3827 0.0000
vn 0.9659 0.2588 0.0000
vn 0.7071 0.7071 0.0000
vn 0.2588 0.9659 0.0000
vn -0.2588 0.9659 0.0000
vn -0.7071 0.7071 0.0000
vn -0.9659 0.2588 0.0000
vn -0.9659 -0.2588 0.0000
vn -0.7071 -0.7071 0.0000
vn -0.2588 -0.9659 0.0000
vn 0.2588 -0.9659 0.0000
vn 0.7071 -0.7071 0.0000
vn 0.9659 -0.2588 0.0000
vn 0.0000 0.0000 -1.0000
vn 0.0000 0.0000 1.0000
vn 0.9659 0.2588 0.0000
vn 0.7071 0.7071 0.0000
vn 0.2588 0.9659 0.0000
vn -0.2588 0.9659 0.0000
vn -0.7071 0.7071 0.0000
vn -0.9659 0.2588 0.0000
vn -0.9659 -0.2588 0.0000
vn -0.7071 -0.7071 0.0000
vn -0.2588 -0.9659 0.0000
vn 0.2588 -0.9659 0.0000
vn 0.7071 -0.7071 0.0000
vn 0.9659 -0.2588 0.0000
vn 0.0000 0.0000 -1.0000
vn 0.0000 0.0000 1.0000
vn 0.0000 0.0000 -1.0000
vn 0.0000 0.0000 1.0000
vn 0.0000 -1.0000 0.0000
vn 1.0000 0.0000 0.0000
vn 0.0000 1.0000 0.0000
vn -1.0000 0.0000 0.0000
vn 0.0000 0.0000 -1.0000
vn 0.0000 0.0000 1.0000
vn 0.0000 -1.0000 0.0000
vn 1.0000 0.0000 0.0000
vn 0.0000 1.0000 0.0000
vn -1.0000 0.0000 0.0000
vn 0.9659 0.2588 0.0000
vn 0.7071 0.7071 0.0000
vn 0.2588 0.9659 0.0000
vn -0.2588 0.9659 0.0000
vn -0.7071 0.7071 0.0000
vn -0.9659 0.2588 0.0000
vn -0.9659 -0.2588 0.0000
vn -0.7071 -0.7071 0.0000
vn -0.2588 -0.9659 0.0000
vn 0.2588 -0.9659 0.0000
vn 0.7071 -0.7071 0.0000
vn 0.9659 -0.2588 0.0000
vn 0.0000 0.0000 -1.0000
vn 0.0000 0.0000 1.0000
vn 0.9659 0.2588 0.0000
vn 0.7071 0.7071 0.0000
vn 0.2588 0.9659 0.0000
vn -0.2588 0.9659 0.0000
vn -0.7071 0.7071 0.0000
vn -0.9659 0.2588 0.0000
vn -0.9659 -0.2588 0.0000
vn -0.7071 -0.7071 0.0000
vn -0.2588 -0.9659 0.0000
vn 0.2588 -0.9659 0.0000
vn 0.7071 -0.7071 0.0000
vn 0.9659 -0.2588 0.0000
vn 0.0000 0.0000 -1.0000
vn 0.0000 0.0000 1.0000
vn 0.0000 0.0000 -1.0000
vn 0.0000 0.0000 1.0000
vn 0.0000 -1.0000 0.0000
vn 1.0000 0.0000 0.0000
vn 0.0000 1.0000 0.0000
vn -1.0000 0.0000 0.0000
vn 0.0000 0.0000 -1.0000
vn 0.0000 0.0000 1.0000
vn 0.0000 -1.0000 0.0000
vn 1.0000 0.0000 0.0000
vn 0.0000 1.0000 0.0000
vn -1.0000 0.0000 0.0000
vn 0.9659 0.2588 0.0000
vn 0.7071 0.7071 0.0000
vn 0.2588 0.9659 0.0000
vn -0.2588 0.9659 0.0000
vn -0.7071 0.7071 0.0000
vn -0.9659 0.2588 0.0000
vn -0.9659 -0.2588 0.0000
vn -0.7071 -0.7071 0.0000
vn -0.2588 -0.9659 0.0000
vn 0.2588 -0.9659 0.0000
vn 0.7071 -0.7071 0.0000
vn 0.9659 -0.2588 0.0000
vn 0.0000 0.0000 -1.0000
vn 0.0000 0.0000 1.0000
vn 0.9659 0.2588 0.0000
vn 0.7071 0.7071 0.0000
vn 0.2588 0.9659 0.0000
vn -0.2588 0.9659 0.0000
vn -0.7071 0.7071 0.0000
vn -0.9659 0.2588 0.0000
vn -0.9659 -0.2588 0.0000
vn -0.7071 -0.7071 0.0000
vn -0.2588 -0.9659 0.0000
vn 0.2588 -0.9659 0.0000
vn 0.7071 -0.7071 0.0000
vn 0.9659 -0.2588 0.0000
vn 0.0000 0.0000 -1.0000
vn 0.0000 0.0000 1.0000
vn 0.0000 0.0000 -1.0000
vn 0.0000 0.0000 1.0000
vn 0.0000 -1.0000 0.0000
vn 1.0000 0.0000 0.0000
vn 0.0000 1.0000 0.0000
vn -1.0000 0.0000 0.0000
vn 0.0000 0.0000 -1.0000
vn 0.0000 0.0000 1.0000
vn 0.0000 -1.0000 0.0000
vn 1.0000 0.0000 0.0000
vn 0.0000 1.0000 0.0000
vn -1.0000 0.0000 0.0000
vn 0.9659 0.2588 0.0000
vn 0.7071 0.7071 0.0000
vn 0.2588 0.9659 0.0000
vn -0.2588 0.9659 0.0000
vn -0.7071 0.7071 0.0000
vn -0.9659 0.2588 0.0000
vn -0.9659 -0.2588 0.0000
vn -0.7071 -0.7071 0.0000
vn -0.2588 -0.9659 0.0000
vn 0.2588 -0.9659 0.0000
vn 0.7071 -0.7071 0.0000
vn 0.9659 -0.2588 0.0000
vn 0.0000 0.0000 -1.0000
vn 0.0000 0.0000 1.0000
vn 0.9659 0.2588 0.0000
vn 0.7071 0.7071 0.0000
vn 0.2588 0.9659 0.0000
vn -0.2588 0.9659 0.0000
vn -0.7071 0.7071 0.0000
vn -0.9659 0.2588 0.0000
vn -0.9659 -0.2588 0.0000
vn -0.7071 -0.7071 0.0000
vn -0.2588 -0.9659 0.0000
vn 0.2588 -0.9659 0.0000
vn 0.7071 -0.7071 0.0000
vn 0.9659 -0.2588 0.0000
vn 0.0000 0.0000 -1.0000
vn 0.0000 0.0000 1.0000
vn 0.0000 0.0000 -1.0000
vn 0.0000 0.0000 1.0000
vn 0.0000 -1.0000 0.0000
vn 1.0000 0.0000 0.0000
vn 0.0000 1.0000 0.0000
vn -1.0000 0.0000 0.0000
vn 0.0000 0.0000 -1.0000
vn 0.0000 0.0000 1.0000
vn 0.0000 -1.0000 0.0000
vn 1.0000 0.0000 0.0000
vn 0.0000 1.0000 0.0000
vn -1.0000 0.0000 0.0000
vn 0.9239 0.3827 0.0000
vn 0.3827 0.9239 0.0000
vn -0.3827 0.9239 0.0000
vn -0.9239 0.3827 0.0000
vn -0.9239 -0.3827 0.0000
vn -0.3827 -0.9239 0.0000
vn 0.3827 -0.9239 0.0000
vn 0.9239 -0.3827 0.0000
vn 0.0000 0.0000 -1.0000
vn 0.0000 0.0000 1.0000
vn 0.8263 0.3423 0.4472
vn 0.3423 0.8263 0.4472
vn -0.3423 0.8263 0.4472
vn -0.8263 0.3423 0.4472
vn -0.8263 -0.3423 0.4472
vn -0.3423 -0.8263 0.4472
vn 0.3423 -0.8263 0.4472
vn 0.8263 -0.3423 0.4472
vn 0.0000 0.0000 -1.0000
vn 0.0000 0.0000 -1.0000
vn 0.0000 0.0000 1.0000
vn 0.0000 -1.0000 0.0000
vn 1.0000 0.0000 0.0000
vn 0.0000 1.0000 0.0000
vn -1.0000 0.0000 0.0000
vn 0.0000 0.0000 -1.0000
vn 0.0000 0.0000 1.0000
vn 0.0000 -1.0000 0.0000
vn 1.0000 0.0000 0.0000
vn 0.0000 1.0000 0.0000
vn -1.0000 0.0000 0.0000
vn 0.0000 0.0000 -1.0000
vn 0.0000 0.0000 1.0000
vn 0.0000 -1.0000 0.0000
vn 1.0000 0.0000 0.0000
vn 0.0000 1.0000 0.0000
vn -1.0000 0.0000 0.0000
vn 0.0000 0.0000 -1.0000
vn 0.0000 0.0000 1.0000
vn 0.0000 -1.0000 0.0000
vn 1.0000 0.0000 0.0000
vn 0.0000 1.0000 0.0000
vn -1.0000 0.0000 0.0000
vn 0.8660 0.5000 0.0000
vn 0.0000 1.0000 0.0000
vn -0.8660 0.5000 0.0000
vn -0.8660 -0.5000 0.0000
vn -0.0000 -1.0000 0.0000
vn 0.8660 -0.5000 0.0000
vn 0.0000 0.0000 -1.0000
vn 0.0000 0.0000 1.0000
vn 0.9239 0.3827 0.0000
vn 0.3827 0.9239 0.0000
vn -0.3827 0.9239 0.0000
vn -0.9239 0.3827 0.0000
vn -0.9239 -0.3827 0.0000
vn -0.3827 -0.9239 0.0000
vn 0.3827 -0.9239 0.0000
vn 0.9239 -0.3827 0.0000
vn 0.0000 0.0000 -1.0000
vn 0.0000 0.0000 1.0000
vn 0.0000 0.0000 -1.0000
vn 0.0000 0.0000 1.0000
vn 0.0000 -1.0000 0.0000
vn 1.0000 0.0000 0.0000
vn 0.0000 1.0000 0.0000
vn -1.0000 0.0000 0.0000
vn 0.0000 0.0000 -1.0000
vn 0.0000 0.0000 1.0000
vn 0.0000 -1.0000 0.0000
vn 1.0000 0.0000 0.0000
vn 0.0000 1.0000 0.0000
vn -1.0000 0.0000 0.0000
usemtl stone_gray
f 1//1 4//1 3//1 2//1
f 5//2 6//2 7//2 8//2
f 1//3 2//3 6//3 5//3
f 2//4 3//4 7//4 6//4
f 3//5 4//5 8//5 7//5
f 4//6 1//6 5//6 8//6
f 9//7 12//7 11//7 10//7
f 13//8 14//8 15//8 16//8
f 9//9 10//9 14//9 13//9
f 10//10 11//10 15//10 14//10
f 11//11 12//11 16//11 15//11
f 12//12 9//12 13//12 16//12
usemtl brick_dark
f 17//13 20//13 19//13 18//13
f 21//14 22//14 23//14 24//14
f 17//15 18//15 22//15 21//15
f 18//16 19//16 23//16 22//16
f 19//17 20//17 24//17 23//17
f 20//18 17//18 21//18 24//18
usemtl wood_beam
f 25//19 28//19 27//19 26//19
f 29//20 30//20 31//20 32//20
f 25//21 26//21 30//21 29//21
f 26//22 27//22 31//22 30//22
f 27//23 28//23 32//23 31//23
f 28//24 25//24 29//24 32//24
usemtl brick_dark
f 33//25 36//25 35//25 34//25
f 37//26 38//26 39//26 40//26
f 33//27 34//27 38//27 37//27
f 34//28 35//28 39//28 38//28
f 35//29 36//29 40//29 39//29
f 36//30 33//30 37//30 40//30
usemtl stone_gray
f 41//31 44//31 43//31 42//31
f 45//32 46//32 47//32 48//32
f 41//33 42//33 46//33 45//33
f 42//34 43//34 47//34 46//34
f 43//35 44//35 48//35 47//35
f 44//36 41//36 45//36 48//36
f 49//37 52//37 51//37 50//37
f 53//38 54//38 55//38 56//38
f 49//39 50//39 54//39 53//39
f 50//40 51//40 55//40 54//40
f 51//41 52//41 56//41 55//41
f 52//42 49//42 53//42 56//42
f 57//43 60//43 59//43 58//43
f 61//44 62//44 63//44 64//44
f 57//45 58//45 62//45 61//45
f 58//46 59//46 63//46 62//46
f 59//47 60//47 64//47 63//47
f 60//48 57//48 61//48 64//48
f 65//49 68//49 67//49 66//49
f 69//50 70//50 71//50 72//50
f 65//51 66//51 70//51 69//51
f 66//52 67//52 71//52 70//52
f 67//53 68//53 72//53 71//53
f 68//54 65//54 69//54 72//54
f 73//55 76//55 75//55 74//55
f 77//56 78//56 79//56 80//56
f 73//57 74//57 78//57 77//57
f 74//58 75//58 79//58 78//58
f 75//59 76//59 80//59 79//59
f 76//60 73//60 77//60 80//60
usemtl brick_main
f 81//61 83//61 84//61 82//61
f 83//62 85//62 86//62 84//62
f 85//63 87//63 88//63 86//63
f 87//64 81//64 82//64 88//64
f 89//65 83//65 81//65
f 89//65 85//65 83//65
f 89//65 87//65 85//65
f 89//65 81//65 87//65
f 90//66 82//66 84//66
f 90//66 84//66 86//66
f 90//66 86//66 88//66
f 90//66 88//66 82//66
usemtl stone_gray
f 91//67 93//67 94//67 92//67
f 93//68 95//68 96//68 94//68
f 95//69 97//69 98//69 96//69
f 97//70 91//70 92//70 98//70
f 99//71 93//71 91//71
f 99//71 95//71 93//71
f 99//71 97//71 95//71
f 99//71 91//71 97//71
f 100//72 92//72 94//72
f 100//72 94//72 96//72
f 100//72 96//72 98//72
f 100//72 98//72 92//72
f 101//73 103//73 104//73 102//73
f 103//74 105//74 106//74 104//74
f 105//75 107//75 108//75 106//75
f 107//76 101//76 102//76 108//76
f 109//77 103//77 101//77
f 109//77 105//77 103//77
f 109//77 107//77 105//77
f 109//77 101//77 107//77
f 110//78 102//78 104//78
f 110//78 104//78 106//78
f 110//78 106//78 108//78
f 110//78 108//78 102//78
f 111//79 113//79 114//79 112//79
f 113//80 115//80 116//80 114//80
f 115//81 117//81 118//81 116//81
f 117//82 111//82 112//82 118//82
f 119//83 113//83 111//83
f 119//83 115//83 113//83
f 119//83 117//83 115//83
f 119//83 111//83 117//83
f 120//84 112//84 114//84
f 120//84 114//84 116//84
f 120//84 116//84 118//84
f 120//84 118//84 112//84
f 121//85 123//85 124//85 122//85
f 123//86 125//86 126//86 124//86
f 125//87 127//87 128//87 126//87
f 127//88 121//88 122//88 128//88
f 129//89 123//89 121//89
f 129//89 125//89 123//89
f 129//89 127//89 125//89
f 129//89 121//89 127//89
f 130//90 122//90 124//90
f 130//90 124//90 126//90
f 130//90 126//90 128//90
f 130//90 128//90 122//90
usemtl wood_beam
f 131//91 134//91 133//91 132//91
f 135//92 136//92 137//92 138//92
f 131//93 132//93 136//93 135//93
f 132//94 133//94 137//94 136//94
f 133//95 134//95 138//95 137//95
f 134//96 131//96 135//96 138//96
f 139//97 142//97 141//97 140//97
f 143//98 144//98 145//98 146//98
f 139//99 140//99 144//99 143//99
f 140//100 141//100 145//100 144//100
f 141//101 142//101 146//101 145//101
f 142//102 139//102 143//102 146//102
f 147//103 150//103 149//103 148//103
f 151//104 152//104 153//104 154//104
f 147//105 148//105 152//105 151//105
f 148//106 149//106 153//106 152//106
f 149//107 150//107 154//107 153//107
f 150//108 147//108 151//108 154//108
f 155//109 158//109 157//109 156//109
f 159//110 160//110 161//110 162//110
f 155//111 156//111 160//111 159//111
f 156//112 157//112 161//112 160//112
f 157//113 158//113 162//113 161//113
f 158//114 155//114 159//114 162//114
usemtl stone_gray
f 163//115 166//115 165//115 164//115
f 167//116 168//116 169//116 170//116
f 163//117 164//117 168//117 167//117
f 164//118 165//118 169//118 168//118
f 165//119 166//119 170//119 169//119
f 166//120 163//120 167//120 170//120
usemtl brick_dark
f 171//121 173//121 174//121 172//121
f 173//122 175//122 176//122 174//122
f 175//123 177//123 178//123 176//123
f 177//124 179//124 180//124 178//124
f 179//125 181//125 182//125 180//125
f 181//126 183//126 184//126 182//126
f 183//127 185//127 186//127 184//127
f 185//128 171//128 172//128 186//128
f 187//129 173//129 171//129
f 187//129 175//129 173//129
f 187//129 177//129 175//129
f 187//129 179//129 177//129
f 187//129 181//129 179//129
f 187//129 183//129 181//129
f 187//129 185//129 183//129
f 187//129 171//129 185//129
f 188//130 172//130 174//130
f 188//130 174//130 176//130
f 188//130 176//130 178//130
f 188//130 178//130 180//130
f 188//130 180//130 182//130
f 188//130 182//130 184//130
f 188//130 184//130 186//130
f 188//130 186//130 172//130
usemtl wood_beam
f 189//131 191//131 192//131 190//131
f 191//132 193//132 194//132 192//132
f 193//133 195//133 196//133 194//133
f 195//134 197//134 198//134 196//134
f 197//135 199//135 200//135 198//135
f 199//136 201//136 202//136 200//136
f 201//137 203//137 204//137 202//137
f 203//138 189//138 190//138 204//138
usemtl brass_trim
f 205//139 207//139 208//139 206//139
f 207//140 209//140 210//140 208//140
f 209//141 211//141 212//141 210//141
f 211//142 213//142 214//142 212//142
f 213//143 215//143 216//143 214//143
f 215//144 217//144 218//144 216//144
f 217//145 219//145 220//145 218//145
f 219//146 221//146 222//146 220//146
f 221//147 223//147 224//147 222//147
f 223//148 225//148 226//148 224//148
f 225//149 227//149 228//149 226//149
f 227//150 205//150 206//150 228//150
f 229//151 207//151 205//151
f 229//151 209//151 207//151
f 229//151 211//151 209//151
f 229//151 213//151 211//151
f 229//151 215//151 213//151
f 229//151 217//151 215//151
f 229//151 219//151 217//151
f 229//151 221//151 219//151
f 229//151 223//151 221//151
f 229//151 225//151 223//151
f 229//151 227//151 225//151
f 229//151 205//151 227//151
f 230//152 206//152 208//152
f 230//152 208//152 210//152
f 230//152 210//152 212//152
f 230//152 212//152 214//152
f 230//152 214//152 216//152
f 230//152 216//152 218//152
f 230//152 218//152 220//152
f 230//152 220//152 222//152
f 230//152 222//152 224//152
f 230//152 224//152 226//152
f 230//152 226//152 228//152
f 230//152 228//152 206//152
usemtl clock_face
f 231//153 233//153 234//153 232//153
f 233//154 235//154 236//154 234//154
f 235//155 237//155 238//155 236//155
f 237//156 239//156 240//156 238//156
f 239//157 241//157 242//157 240//157
f 241//158 243//158 244//158 242//158
f 243//159 245//159 246//159 244//159
f 245//160 247//160 248//160 246//160
f 247//161 249//161 250//161 248//161
f 249//162 251//162 252//162 250//162
f 251//163 253//163 254//163 252//163
f 253//164 231//164 232//164 254//164
f 255//165 233//165 231//165
f 255//165 235//165 233//165
f 255//165 237//165 235//165
f 255//165 239//165 237//165
f 255//165 241//165 239//165
f 255//165 243//165 241//165
f 255//165 245//165 243//165
f 255//165 247//165 245//165
f 255//165 249//165 247//165
f 255//165 251//165 249//165
f 255//165 253//165 251//165
f 255//165 231//165 253//165
f 256//166 232//166 234//166
f 256//166 234//166 236//166
f 256//166 236//166 238//166
f 256//166 238//166 240//166
f 256//166 240//166 242//166
f 256//166 242//166 244//166
f 256//166 244//166 246//166
f 256//166 246//166 248//166
f 256//166 248//166 250//166
f 256//166 250//166 252//166
f 256//166 252//166 254//166
f 256//166 254//166 232//166
usemtl wood_beam
f 257//167 260//167 259//167 258//167
f 261//168 262//168 263//168 264//168
f 257//169 258//169 262//169 261//169
f 258//170 259//170 263//170 262//170
f 259//171 260//171 264//171 263//171
f 260//172 257//172 261//172 264//172
f 265//173 268//173 267//173 266//173
f 269//174 270//174 271//174 272//174
f 265//175 266//175 270//175 269//175
f 266//176 267//176 271//176 270//176
f 267//177 268//177 272//177 271//177
f 268//178 265//178 269//178 272//178
usemtl brass_trim
f 273//179 275//179 276//179 274//179
f 275//180 277//180 278//180 276//180
f 277//181 279//181 280//181 278//181
f 279//182 281//182 282//182 280//182
f 281//183 283//183 284//183 282//183
f 283//184 285//184 286//184 284//184
f 285//185 287//185 288//185 286//185
f 287//186 289//186 290//186 288//186
f 289//187 291//187 292//187 290//187
f 291//188 293//188 294//188 292//188
f 293//189 295//189 296//189 294//189
f 295//190 273//190 274//190 296//190
f 297//191 275//191 273//191
f 297//191 277//191 275//191
f 297//191 279//191 277//191
f 297//191 281//191 279//191
f 297//191 283//191 281//191
f 297//191 285//191 283//191
f 297//191 287//191 285//191
f 297//191 289//191 287//191
f 297//191 291//191 289//191
f 297//191 293//191 291//191
f 297//191 295//191 293//191
f 297//191 273//191 295//191
f 298//192 274//192 276//192
f 298//192 276//192 278//192
f 298//192 278//192 280//192
f 298//192 280//192 282//192
f 298//192 282//192 284//192
f 298//192 284//192 286//192
f 298//192 286//192 288//192
f 298//192 288//192 290//192
f 298//192 290//192 292//192
f 298//192 292//192 294//192
f 298//192 294//192 296//192
f 298//192 296//192 274//192
usemtl clock_face
f 299//193 301//193 302//193 300//193
f 301//194 303//194 304//194 302//194
f 303//195 305//195 306//195 304//195
f 305//196 307//196 308//196 306//196
f 307//197 309//197 310//197 308//197
f 309//198 311//198 312//198 310//198
f 311//199 313//199 314//199 312//199
f 313//200 315//200 316//200 314//200
f 315//201 317//201 318//201 316//201
f 317//202 319//202 320//202 318//202
f 319//203 321//203 322//203 320//203
f 321//204 299//204 300//204 322//204
f 323//205 301//205 299//205
f 323//205 303//205 301//205
f 323//205 305//205 303//205
f 323//205 307//205 305//205
f 323//205 309//205 307//205
f 323//205 311//205 309//205
f 323//205 313//205 311//205
f 323//205 315//205 313//205
f 323//205 317//205 315//205
f 323//205 319//205 317//205
f 323//205 321//205 319//205
f 323//205 299//205 321//205
f 324//206 300//206 302//206
f 324//206 302//206 304//206
f 324//206 304//206 306//206
f 324//206 306//206 308//206
f 324//206 308//206 310//206
f 324//206 310//206 312//206
f 324//206 312//206 314//206
f 324//206 314//206 316//206
f 324//206 316//206 318//206
f 324//206 318//206 320//206
f 324//206 320//206 322//206
f 324//206 322//206 300//206
usemtl wood_beam
f 325//207 328//207 327//207 326//207
f 329//208 330//208 331//208 332//208
f 325//209 326//209 330//209 329//209
f 326//210 327//210 331//210 330//210
f 327//211 328//211 332//211 331//211
f 328//212 325//212 329//212 332//212
f 333//213 336//213 335//213 334//213
f 337//214 338//214 339//214 340//214
f 333//215 334//215 338//215 337//215
f 334//216 335//216 339//216 338//216
f 335//217 336//217 340//217 339//217
f 336//218 333//218 337//218 340//218
usemtl brass_trim
f 341//219 343//219 344//219 342//219
f 343//220 345//220 346//220 344//220
f 345//221 347//221 348//221 346//221
f 347//222 349//222 350//222 348//222
f 349//223 351//223 352//223 350//223
f 351//224 353//224 354//224 352//224
f 353//225 355//225 356//225 354//225
f 355//226 357//226 358//226 356//226
f 357//227 359//227 360//227 358//227
f 359//228 361//228 362//228 360//228
f 361//229 363//229 364//229 362//229
f 363//230 341//230 342//230 364//230
f 365//231 343//231 341//231
f 365//231 345//231 343//231
f 365//231 347//231 345//231
f 365//231 349//231 347//231
f 365//231 351//231 349//231
f 365//231 353//231 351//231
f 365//231 355//231 353//231
f 365//231 357//231 355//231
f 365//231 359//231 357//231
f 365//231 361//231 359//231
f 365//231 363//231 361//231
f 365//231 341//231 363//231
f 366//232 342//232 344//232
f 366//232 344//232 346//232
f 366//232 346//232 348//232
f 366//232 348//232 350//232
f 366//232 350//232 352//232
f 366//232 352//232 354//232
f 366//232 354//232 356//232
f 366//232 356//232 358//232
f 366//232 358//232 360//232
f 366//232 360//232 362//232
f 366//232 362//232 364//232
f 366//232 364//232 342//232
usemtl clock_face
f 367//233 369//233 370//233 368//233
f 369//234 371//234 372//234 370//234
f 371//235 373//235 374//235 372//235
f 373//236 375//236 376//236 374//236
f 375//237 377//237 378//237 376//237
f 377//238 379//238 380//238 378//238
f 379//239 381//239 382//239 380//239
f 381//240 383//240 384//240 382//240
f 383//241 385//241 386//241 384//241
f 385//242 387//242 388//242 386//242
f 387//243 389//243 390//243 388//243
f 389//244 367//244 368//244 390//244
f 391//245 369//245 367//245
f 391//245 371//245 369//245
f 391//245 373//245 371//245
f 391//245 375//245 373//245
f 391//245 377//245 375//245
f 391//245 379//245 377//245
f 391//245 381//245 379//245
f 391//245 383//245 381//245
f 391//245 385//245 383//245
f 391//245 387//245 385//245
f 391//245 389//245 387//245
f 391//245 367//245 389//245
f 392//246 368//246 370//246
f 392//246 370//246 372//246
f 392//246 372//246 374//246
f 392//246 374//246 376//246
f 392//246 376//246 378//246
f 392//246 378//246 380//246
f 392//246 380//246 382//246
f 392//246 382//246 384//246
f 392//246 384//246 386//246
f 392//246 386//246 388//246
f 392//246 388//246 390//246
f 392//246 390//246 368//246
usemtl wood_beam
f 393//247 396//247 395//247 394//247
f 397//248 398//248 399//248 400//248
f 393//249 394//249 398//249 397//249
f 394//250 395//250 399//250 398//250
f 395//251 396//251 400//251 399//251
f 396//252 393//252 397//252 400//252
f 401//253 404//253 403//253 402//253
f 405//254 406//254 407//254 408//254
f 401//255 402//255 406//255 405//255
f 402//256 403//256 407//256 406//256
f 403//257 404//257 408//257 407//257
f 404//258 401//258 405//258 408//258
usemtl brass_trim
f 409//259 411//259 412//259 410//259
f 411//260 413//260 414//260 412//260
f 413//261 415//261 416//261 414//261
f 415//262 417//262 418//262 416//262
f 417//263 419//263 420//263 418//263
f 419//264 421//264 422//264 420//264
f 421//265 423//265 424//265 422//265
f 423//266 425//266 426//266 424//266
f 425//267 427//267 428//267 426//267
f 427//268 429//268 430//268 428//268
f 429//269 431//269 432//269 430//269
f 431//270 409//270 410//270 432//270
f 433//271 411//271 409//271
f 433//271 413//271 411//271
f 433//271 415//271 413//271
f 433//271 417//271 415//271
f 433//271 419//271 417//271
f 433//271 421//271 419//271
f 433//271 423//271 421//271
f 433//271 425//271 423//271
f 433//271 427//271 425//271
f 433//271 429//271 427//271
f 433//271 431//271 429//271
f 433//271 409//271 431//271
f 434//272 410//272 412//272
f 434//272 412//272 414//272
f 434//272 414//272 416//272
f 434//272 416//272 418//272
f 434//272 418//272 420//272
f 434//272 420//272 422//272
f 434//272 422//272 424//272
f 434//272 424//272 426//272
f 434//272 426//272 428//272
f 434//272 428//272 430//272
f 434//272 430//272 432//272
f 434//272 432//272 410//272
usemtl clock_face
f 435//273 437//273 438//273 436//273
f 437//274 439//274 440//274 438//274
f 439//275 441//275 442//275 440//275
f 441//276 443//276 444//276 442//276
f 443//277 445//277 446//277 444//277
f 445//278 447//278 448//278 446//278
f 447//279 449//279 450//279 448//279
f 449//280 451//280 452//280 450//280
f 451//281 453//281 454//281 452//281
f 453//282 455//282 456//282 454//282
f 455//283 457//283 458//283 456//283
f 457//284 435//284 436//284 458//284
f 459//285 437//285 435//285
f 459//285 439//285 437//285
f 459//285 441//285 439//285
f 459//285 443//285 441//285
f 459//285 445//285 443//285
f 459//285 447//285 445//285
f 459//285 449//285 447//285
f 459//285 451//285 449//285
f 459//285 453//285 451//285
f 459//285 455//285 453//285
f 459//285 457//285 455//285
f 459//285 435//285 457//285
f 460//286 436//286 438//286
f 460//286 438//286 440//286
f 460//286 440//286 442//286
f 460//286 442//286 444//286
f 460//286 444//286 446//286
f 460//286 446//286 448//286
f 460//286 448//286 450//286
f 460//286 450//286 452//286
f 460//286 452//286 454//286
f 460//286 454//286 456//286
f 460//286 456//286 458//286
f 460//286 458//286 436//286
usemtl wood_beam
f 461//287 464//287 463//287 462//287
f 465//288 466//288 467//288 468//288
f 461//289 462//289 466//289 465//289
f 462//290 463//290 467//290 466//290
f 463//291 464//291 468//291 467//291
f 464//292 461//292 465//292 468//292
f 469//293 472//293 471//293 470//293
f 473//294 474//294 475//294 476//294
f 469//295 470//295 474//295 473//295
f 470//296 471//296 475//296 474//296
f 471//297 472//297 476//297 475//297
f 472//298 469//298 473//298 476//298
usemtl stone_gray
f 477//299 479//299 480//299 478//299
f 479//300 481//300 482//300 480//300
f 481//301 483//301 484//301 482//301
f 483//302 485//302 486//302 484//302
f 485//303 487//303 488//303 486//303
f 487//304 489//304 490//304 488//304
f 489//305 491//305 492//305 490//305
f 491//306 477//306 478//306 492//306
f 493//307 479//307 477//307
f 493//307 481//307 479//307
f 493//307 483//307 481//307
f 493//307 485//307 483//307
f 493//307 487//307 485//307
f 493//307 489//307 487//307
f 493//307 491//307 489//307
f 493//307 477//307 491//307
f 494//308 478//308 480//308
f 494//308 480//308 482//308
f 494//308 482//308 484//308
f 494//308 484//308 486//308
f 494//308 486//308 488//308
f 494//308 488//308 490//308
f 494//308 490//308 492//308
f 494//308 492//308 478//308
usemtl roof_slate
f 495//309 496//309 503//309
f 496//310 497//310 503//310
f 497//311 498//311 503//311
f 498//312 499//312 503//312
f 499//313 500//313 503//313
f 500//314 501//314 503//314
f 501//315 502//315 503//315
f 502//316 495//316 503//316
f 504//317 496//317 495//317
f 504//317 497//317 496//317
f 504//317 498//317 497//317
f 504//317 499//317 498//317
f 504//317 500//317 499//317
f 504//317 501//317 500//317
f 504//317 502//317 501//317
f 504//317 495//317 502//317
usemtl roof_spire
f 505//318 508//318 507//318 506//318
f 509//319 510//319 511//319 512//319
f 505//320 506//320 510//320 509//320
f 506//321 507//321 511//321 510//321
f 507//322 508//322 512//322 511//322
f 508//323 505//323 509//323 512//323
f 513//324 516//324 515//324 514//324
f 517//325 518//325 519//325 520//325
f 513//326 514//326 518//326 517//326
f 514//327 515//327 519//327 518//327
f 515//328 516//328 520//328 519//328
f 516//329 513//329 517//329 520//329
f 521//330 524//330 523//330 522//330
f 525//331 526//331 527//331 528//331
f 521//332 522//332 526//332 525//332
f 522//333 523//333 527//333 526//333
f 523//334 524//334 528//334 527//334
f 524//335 521//335 525//335 528//335
f 529//336 532//336 531//336 530//336
f 533//337 534//337 535//337 536//337
f 529//338 530//338 534//338 533//338
f 530//339 531//339 535//339 534//339
f 531//340 532//340 536//340 535//340
f 532//341 529//341 533//341 536//341
usemtl gold_accent
f 537//342 539//342 540//342 538//342
f 539//343 541//343 542//343 540//343
f 541//344 543//344 544//344 542//344
f 543//345 545//345 546//345 544//345
f 545//346 547//346 548//346 546//346
f 547//347 537//347 538//347 548//347
f 549//348 539//348 537//348
f 549//348 541//348 539//348
f 549//348 543//348 541//348
f 549//348 545//348 543//348
f 549//348 547//348 545//348
f 549//348 537//348 547//348
f 550//349 538//349 540//349
f 550//349 540//349 542//349
f 550//349 542//349 544//349
f 550//349 544//349 546//349
f 550//349 546//349 548//349
f 550//349 548//349 538//349
f 551//350 553//350 554//350 552//350
f 553//351 555//351 556//351 554//351
f 555//352 557//352 558//352 556//352
f 557//353 559//353 560//353 558//353
f 559//354 561//354 562//354 560//354
f 561//355 563//355 564//355 562//355
f 563//356 565//356 566//356 564//356
f 565//357 551//357 552//357 566//357
f 567//358 553//358 551//358
f 567//358 555//358 553//358
f 567//358 557//358 555//358
f 567//358 559//358 557//358
f 567//358 561//358 559//358
f 567//358 563//358 561//358
f 567//358 565//358 563//358
f 567//358 551//358 565//358
f 568//359 552//359 554//359
f 568//359 554//359 556//359
f 568//359 556//359 558//359
f 568//359 558//359 560//359
f 568//359 560//359 562//359
f 568//359 562//359 564//359
f 568//359 564//359 566//359
f 568//359 566//359 552//359
f 569//360 572//360 571//360 570//360
f 573//361 574//361 575//361 576//361
f 569//362 570//362 574//362 573//362
f 570//363 571//363 575//363 574//363
f 571//364 572//364 576//364 575//364
f 572//365 569//365 573//365 576//365
f 577//366 580//366 579//366 578//366
f 581//367 582//367 583//367 584//367
f 577//368 578//368 582//368 581//368
f 578//369 579//369 583//369 582//369
f 579//370 580//370 584//370 583//370
f 580//371 577//371 581//371 584//371
