# Wavefront OBJ file for prontera_fountain
mtllib prontera_fountain.mtl
o prontera_fountain

v 3.4000 0.0000 0.0000
v 3.4000 0.0000 0.2000
v 2.9445 1.7000 0.0000
v 2.9445 1.7000 0.2000
v 1.7000 2.9445 0.0000
v 1.7000 2.9445 0.2000
v 0.0000 3.4000 0.0000
v 0.0000 3.4000 0.2000
v -1.7000 2.9445 0.0000
v -1.7000 2.9445 0.2000
v -2.9445 1.7000 0.0000
v -2.9445 1.7000 0.2000
v -3.4000 0.0000 0.0000
v -3.4000 0.0000 0.2000
v -2.9445 -1.7000 0.0000
v -2.9445 -1.7000 0.2000
v -1.7000 -2.9445 0.0000
v -1.7000 -2.9445 0.2000
v -0.0000 -3.4000 0.0000
v -0.0000 -3.4000 0.2000
v 1.7000 -2.9445 0.0000
v 1.7000 -2.9445 0.2000
v 2.9445 -1.7000 0.0000
v 2.9445 -1.7000 0.2000
v 0.0000 0.0000 0.0000
v 0.0000 0.0000 0.2000
v 3.1000 0.0000 0.2000
v 3.1000 0.0000 0.4000
v 2.6847 1.5500 0.2000
v 2.6847 1.5500 0.4000
v 1.5500 2.6847 0.2000
v 1.5500 2.6847 0.4000
v 0.0000 3.1000 0.2000
v 0.0000 3.1000 0.4000
v -1.5500 2.6847 0.2000
v -1.5500 2.6847 0.4000
v -2.6847 1.5500 0.2000
v -2.6847 1.5500 0.4000
v -3.1000 0.0000 0.2000
v -3.1000 0.0000 0.4000
v -2.6847 -1.5500 0.2000
v -2.6847 -1.5500 0.4000
v -1.5500 -2.6847 0.2000
v -1.5500 -2.6847 0.4000
v -0.0000 -3.1000 0.2000
v -0.0000 -3.1000 0.4000
v 1.5500 -2.6847 0.2000
v 1.5500 -2.6847 0.4000
v 2.6847 -1.5500 0.2000
v 2.6847 -1.5500 0.4000
v 0.0000 0.0000 0.2000
v 0.0000 0.0000 0.4000
v 3.0000 0.0000 0.4000
v 3.0000 0.0000 1.1000
v 2.5000 0.0000 0.4000
v 2.5000 0.0000 1.1000
v 2.7716 1.1481 0.4000
v 2.7716 1.1481 1.1000
v 2.3097 0.9567 0.4000
v 2.3097 0.9567 1.1000
v 2.1213 2.1213 0.4000
v 2.1213 2.1213 1.1000
v 1.7678 1.7678 0.4000
v 1.7678 1.7678 1.1000
v 1.1481 2.7716 0.4000
v 1.1481 2.7716 1.1000
v 0.9567 2.3097 0.4000
v 0.9567 2.3097 1.1000
v 0.0000 3.0000 0.4000
v 0.0000 3.0000 1.1000
v 0.0000 2.5000 0.4000
v 0.0000 2.5000 1.1000
v -1.1481 2.7716 0.4000
v -1.1481 2.7716 1.1000
v -0.9567 2.3097 0.4000
v -0.9567 2.3097 1.1000
v -2.1213 2.1213 0.4000
v -2.1213 2.1213 1.1000
v -1.7678 1.7678 0.4000
v -1.7678 1.7678 1.1000
v -2.7716 1.1481 0.4000
v -2.7716 1.1481 1.1000
v -2.3097 0.9567 0.4000
v -2.3097 0.9567 1.1000
v -3.0000 0.0000 0.4000
v -3.0000 0.0000 1.1000
v -2.5000 0.0000 0.4000
v -2.5000 0.0000 1.1000
v -2.7716 -1.1481 0.4000
v -2.7716 -1.1481 1.1000
v -2.3097 -0.9567 0.4000
v -2.3097 -0.9567 1.1000
v -2.1213 -2.1213 0.4000
v -2.1213 -2.1213 1.1000
v -1.7678 -1.7678 0.4000
v -1.7678 -1.7678 1.1000
v -1.1481 -2.7716 0.4000
v -1.1481 -2.7716 1.1000
v -0.9567 -2.3097 0.4000
v -0.9567 -2.3097 1.1000
v -0.0000 -3.0000 0.4000
v -0.0000 -3.0000 1.1000
v -0.0000 -2.5000 0.4000
v -0.0000 -2.5000 1.1000
v 1.1481 -2.7716 0.4000
v 1.1481 -2.7716 1.1000
v 0.9567 -2.3097 0.4000
v 0.9567 -2.3097 1.1000
v 2.1213 -2.1213 0.4000
v 2.1213 -2.1213 1.1000
v 1.7678 -1.7678 0.4000
v 1.7678 -1.7678 1.1000
v 2.7716 -1.1481 0.4000
v 2.7716 -1.1481 1.1000
v 2.3097 -0.9567 0.4000
v 2.3097 -0.9567 1.1000
v 2.5000 0.0000 0.4000
v 2.5000 0.0000 0.9500
v 2.3097 0.9567 0.4000
v 2.3097 0.9567 0.9500
v 1.7678 1.7678 0.4000
v 1.7678 1.7678 0.9500
v 0.9567 2.3097 0.4000
v 0.9567 2.3097 0.9500
v 0.0000 2.5000 0.4000
v 0.0000 2.5000 0.9500
v -0.9567 2.3097 0.4000
v -0.9567 2.3097 0.9500
v -1.7678 1.7678 0.4000
v -1.7678 1.7678 0.9500
v -2.3097 0.9567 0.4000
v -2.3097 0.9567 0.9500
v -2.5000 0.0000 0.4000
v -2.5000 0.0000 0.9500
v -2.3097 -0.9567 0.4000
v -2.3097 -0.9567 0.9500
v -1.7678 -1.7678 0.4000
v -1.7678 -1.7678 0.9500
v -0.9567 -2.3097 0.4000
v -0.9567 -2.3097 0.9500
v -0.0000 -2.5000 0.4000
v -0.0000 -2.5000 0.9500
v 0.9567 -2.3097 0.4000
v 0.9567 -2.3097 0.9500
v 1.7678 -1.7678 0.4000
v 1.7678 -1.7678 0.9500
v 2.3097 -0.9567 0.4000
v 2.3097 -0.9567 0.9500
v 0.0000 0.0000 0.9500
v 0.8000 0.0000 0.4000
v 0.7000 0.0000 1.8000
v 0.6928 0.4000 0.4000
v 0.6062 0.3500 1.8000
v 0.4000 0.6928 0.4000
v 0.3500 0.6062 1.8000
v 0.0000 0.8000 0.4000
v 0.0000 0.7000 1.8000
v -0.4000 0.6928 0.4000
v -0.3500 0.6062 1.8000
v -0.6928 0.4000 0.4000
v -0.6062 0.3500 1.8000
v -0.8000 0.0000 0.4000
v -0.7000 0.0000 1.8000
v -0.6928 -0.4000 0.4000
v -0.6062 -0.3500 1.8000
v -0.4000 -0.6928 0.4000
v -0.3500 -0.6062 1.8000
v -0.0000 -0.8000 0.4000
v -0.0000 -0.7000 1.8000
v 0.4000 -0.6928 0.4000
v 0.3500 -0.6062 1.8000
v 0.6928 -0.4000 0.4000
v 0.6062 -0.3500 1.8000
v 0.0000 0.0000 0.4000
v 0.0000 0.0000 1.8000
v 0.9500 0.0000 1.6000
v 0.9500 0.0000 1.8000
v 0.8227 0.4750 1.6000
v 0.8227 0.4750 1.8000
v 0.4750 0.8227 1.6000
v 0.4750 0.8227 1.8000
v 0.0000 0.9500 1.6000
v 0.0000 0.9500 1.8000
v -0.4750 0.8227 1.6000
v -0.4750 0.8227 1.8000
v -0.8227 0.4750 1.6000
v -0.8227 0.4750 1.8000
v -0.9500 0.0000 1.6000
v -0.9500 0.0000 1.8000
v -0.8227 -0.4750 1.6000
v -0.8227 -0.4750 1.8000
v -0.4750 -0.8227 1.6000
v -0.4750 -0.8227 1.8000
v -0.0000 -0.9500 1.6000
v -0.0000 -0.9500 1.8000
v 0.4750 -0.8227 1.6000
v 0.4750 -0.8227 1.8000
v 0.8227 -0.4750 1.6000
v 0.8227 -0.4750 1.8000
v 0.0000 0.0000 1.6000
v 0.0000 0.0000 1.8000
v 1.4000 0.0000 1.8000
v 1.4000 0.0000 2.2000
v 1.1000 0.0000 1.8000
v 1.1000 0.0000 2.2000
v 1.2124 0.7000 1.8000
v 1.2124 0.7000 2.2000
v 0.9526 0.5500 1.8000
v 0.9526 0.5500 2.2000
v 0.7000 1.2124 1.8000
v 0.7000 1.2124 2.2000
v 0.5500 0.9526 1.8000
v 0.5500 0.9526 2.2000
v 0.0000 1.4000 1.8000
v 0.0000 1.4000 2.2000
v 0.0000 1.1000 1.8000
v 0.0000 1.1000 2.2000
v -0.7000 1.2124 1.8000
v -0.7000 1.2124 2.2000
v -0.5500 0.9526 1.8000
v -0.5500 0.9526 2.2000
v -1.2124 0.7000 1.8000
v -1.2124 0.7000 2.2000
v -0.9526 0.5500 1.8000
v -0.9526 0.5500 2.2000
v -1.4000 0.0000 1.8000
v -1.4000 0.0000 2.2000
v -1.1000 0.0000 1.8000
v -1.1000 0.0000 2.2000
v -1.2124 -0.7000 1.8000
v -1.2124 -0.7000 2.2000
v -0.9526 -0.5500 1.8000
v -0.9526 -0.5500 2.2000
v -0.7000 -1.2124 1.8000
v -0.7000 -1.2124 2.2000
v -0.5500 -0.9526 1.8000
v -0.5500 -0.9526 2.2000
v -0.0000 -1.4000 1.8000
v -0.0000 -1.4000 2.2000
v -0.0000 -1.1000 1.8000
v -0.0000 -1.1000 2.2000
v 0.7000 -1.2124 1.8000
v 0.7000 -1.2124 2.2000
v 0.5500 -0.9526 1.8000
v 0.5500 -0.9526 2.2000
v 1.2124 -0.7000 1.8000
v 1.2124 -0.7000 2.2000
v 0.9526 -0.5500 1.8000
v 0.9526 -0.5500 2.2000
v 1.1000 0.0000 1.8000
v 1.1000 0.0000 2.1000
v 0.9526 0.5500 1.8000
v 0.9526 0.5500 2.1000
v 0.5500 0.9526 1.8000
v 0.5500 0.9526 2.1000
v 0.0000 1.1000 1.8000
v 0.0000 1.1000 2.1000
v -0.5500 0.9526 1.8000
v -0.5500 0.9526 2.1000
v -0.9526 0.5500 1.8000
v -0.9526 0.5500 2.1000
v -1.1000 0.0000 1.8000
v -1.1000 0.0000 2.1000
v -0.9526 -0.5500 1.8000
v -0.9526 -0.5500 2.1000
v -0.5500 -0.9526 1.8000
v -0.5500 -0.9526 2.1000
v -0.0000 -1.1000 1.8000
v -0.0000 -1.1000 2.1000
v 0.5500 -0.9526 1.8000
v 0.5500 -0.9526 2.1000
v 0.9526 -0.5500 1.8000
v 0.9526 -0.5500 2.1000
v 0.0000 0.0000 2.1000
v 0.4500 0.0000 2.2000
v 0.3500 0.0000 3.2000
v 0.3182 0.3182 2.2000
v 0.2475 0.2475 3.2000
v 0.0000 0.4500 2.2000
v 0.0000 0.3500 3.2000
v -0.3182 0.3182 2.2000
v -0.2475 0.2475 3.2000
v -0.4500 0.0000 2.2000
v -0.3500 0.0000 3.2000
v -0.3182 -0.3182 2.2000
v -0.2475 -0.2475 3.2000
v -0.0000 -0.4500 2.2000
v -0.0000 -0.3500 3.2000
v 0.3182 -0.3182 2.2000
v 0.2475 -0.2475 3.2000
v 0.0000 0.0000 2.2000
v 0.0000 0.0000 3.2000
v 0.8000 0.0000 3.2000
v 0.8000 0.0000 3.5000
v 0.6000 0.0000 3.2000
v 0.6000 0.0000 3.5000
v 0.5657 0.5657 3.2000
v 0.5657 0.5657 3.5000
v 0.4243 0.4243 3.2000
v 0.4243 0.4243 3.5000
v 0.0000 0.8000 3.2000
v 0.0000 0.8000 3.5000
v 0.0000 0.6000 3.2000
v 0.0000 0.6000 3.5000
v -0.5657 0.5657 3.2000
v -0.5657 0.5657 3.5000
v -0.4243 0.4243 3.2000
v -0.4243 0.4243 3.5000
v -0.8000 0.0000 3.2000
v -0.8000 0.0000 3.5000
v -0.6000 0.0000 3.2000
v -0.6000 0.0000 3.5000
v -0.5657 -0.5657 3.2000
v -0.5657 -0.5657 3.5000
v -0.4243 -0.4243 3.2000
v -0.4243 -0.4243 3.5000
v -0.0000 -0.8000 3.2000
v -0.0000 -0.8000 3.5000
v -0.0000 -0.6000 3.2000
v -0.0000 -0.6000 3.5000
v 0.5657 -0.5657 3.2000
v 0.5657 -0.5657 3.5000
v 0.4243 -0.4243 3.2000
v 0.4243 -0.4243 3.5000
v 0.6000 0.0000 3.2000
v 0.6000 0.0000 3.4500
v 0.4243 0.4243 3.2000
v 0.4243 0.4243 3.4500
v 0.0000 0.6000 3.2000
v 0.0000 0.6000 3.4500
v -0.4243 0.4243 3.2000
v -0.4243 0.4243 3.4500
v -0.6000 0.0000 3.2000
v -0.6000 0.0000 3.4500
v -0.4243 -0.4243 3.2000
v -0.4243 -0.4243 3.4500
v -0.0000 -0.6000 3.2000
v -0.0000 -0.6000 3.4500
v 0.4243 -0.4243 3.2000
v 0.4243 -0.4243 3.4500
v 0.0000 0.0000 3.4500
v 0.2500 0.0000 3.5000
v 0.1500 0.0000 3.8000
v 0.1250 0.2165 3.5000
v 0.0750 0.1299 3.8000
v -0.1250 0.2165 3.5000
v -0.0750 0.1299 3.8000
v -0.2500 0.0000 3.5000
v -0.1500 0.0000 3.8000
v -0.1250 -0.2165 3.5000
v -0.0750 -0.1299 3.8000
v 0.1250 -0.2165 3.5000
v 0.0750 -0.1299 3.8000
v 0.0000 0.0000 3.5000
v 0.0000 0.0000 3.8000
v 0.3000 0.0000 3.8000
v 0.1500 0.2598 3.8000
v -0.1500 0.2598 3.8000
v -0.3000 0.0000 3.8000
v -0.1500 -0.2598 3.8000
v 0.1500 -0.2598 3.8000
v 0.0000 0.0000 4.5000
v 0.0000 0.0000 3.8000
v 0.1500 0.0000 3.7000
v 0.6000 0.0000 4.3000
v 0.5000 0.0000 3.6000
v 0.0000 0.1500 3.7000
v 0.0000 0.6000 4.3000
v 0.0000 0.5000 3.6000
v -0.1500 0.0000 3.7000
v -0.6000 0.0000 4.3000
v -0.5000 0.0000 3.6000
v -0.0000 -0.1500 3.7000
v -0.0000 -0.6000 4.3000
v -0.0000 -0.5000 3.6000
v 0.7164 0.6364 0.9500
v 0.6864 0.6364 2.1000
v 0.6764 0.7057 0.9500
v 0.6614 0.6797 2.1000
v 0.5964 0.7057 0.9500
v 0.6114 0.6797 2.1000
v 0.5564 0.6364 0.9500
v 0.5864 0.6364 2.1000
v 0.5964 0.5671 0.9500
v 0.6114 0.5931 2.1000
v 0.6764 0.5671 0.9500
v 0.6614 0.5931 2.1000
v 0.6364 0.6364 0.9500
v 0.6364 0.6364 2.1000
v -0.5564 0.6364 0.9500
v -0.5864 0.6364 2.1000
v -0.5964 0.7057 0.9500
v -0.6114 0.6797 2.1000
v -0.6764 0.7057 0.9500
v -0.6614 0.6797 2.1000
v -0.7164 0.6364 0.9500
v -0.6864 0.6364 2.1000
v -0.6764 0.5671 0.9500
v -0.6614 0.5931 2.1000
v -0.5964 0.5671 0.9500
v -0.6114 0.5931 2.1000
v -0.6364 0.6364 0.9500
v -0.6364 0.6364 2.1000
v -0.5564 -0.6364 0.9500
v -0.5864 -0.6364 2.1000
v -0.5964 -0.5671 0.9500
v -0.6114 -0.5931 2.1000
v -0.6764 -0.5671 0.9500
v -0.6614 -0.5931 2.1000
v -0.7164 -0.6364 0.9500
v -0.6864 -0.6364 2.1000
v -0.6764 -0.7057 0.9500
v -0.6614 -0.6797 2.1000
v -0.5964 -0.7057 0.9500
v -0.6114 -0.6797 2.1000
v -0.6364 -0.6364 0.9500
v -0.6364 -0.6364 2.1000
v 0.7164 -0.6364 0.9500
v 0.6864 -0.6364 2.1000
v 0.6764 -0.5671 0.9500
v 0.6614 -0.5931 2.1000
v 0.5964 -0.5671 0.9500
v 0.6114 -0.5931 2.1000
v 0.5564 -0.6364 0.9500
v 0.5864 -0.6364 2.1000
v 0.5964 -0.7057 0.9500
v 0.6114 -0.6797 2.1000
v 0.6764 -0.7057 0.9500
v 0.6614 -0.6797 2.1000
v 0.6364 -0.6364 0.9500
v 0.6364 -0.6364 2.1000
vn 0.9659 0.2588 0.0000
vn 0.7071 0.7071 0.0000
vn 0.2588 0.9659 0.0000
vn -0.2588 0.9659 0.0000
vn -0.7071 0.7071 0.0000
vn -0.9659 0.2588 0.0000
vn -0.9659 -0.2588 0.0000
vn -0.7071 -0.7071 0.0000
vn -0.2588 -0.9659 0.0000
vn 0.2588 -0.9659 0.0000
vn 0.7071 -0.7071 0.0000
vn 0.9659 -0.2588 0.0000
vn 0.0000 0.0000 -1.0000
vn 0.0000 0.0000 1.0000
vn 0.9659 0.2588 0.0000
vn 0.7071 0.7071 0.0000
vn 0.2588 0.9659 0.0000
vn -0.2588 0.9659 0.0000
vn -0.7071 0.7071 0.0000
vn -0.9659 0.2588 0.0000
vn -0.9659 -0.2588 0.0000
vn -0.7071 -0.7071 0.0000
vn -0.2588 -0.9659 0.0000
vn 0.2588 -0.9659 0.0000
vn 0.7071 -0.7071 0.0000
vn 0.9659 -0.2588 0.0000
vn 0.0000 0.0000 -1.0000
vn 0.0000 0.0000 1.0000
vn 0.9808 0.1951 0.0000
vn 0.8315 0.5556 0.0000
vn 0.5556 0.8315 0.0000
vn 0.1951 0.9808 0.0000
vn -0.1951 0.9808 0.0000
vn -0.5556 0.8315 0.0000
vn -0.8315 0.5556 0.0000
vn -0.9808 0.1951 0.0000
vn -0.9808 -0.1951 0.0000
vn -0.8315 -0.5556 0.0000
vn -0.5556 -0.8315 0.0000
vn -0.1951 -0.9808 0.0000
vn 0.1951 -0.9808 0.0000
vn 0.5556 -0.8315 0.0000
vn 0.8315 -0.5556 0.0000
vn 0.9808 -0.1951 0.0000
vn -0.9808 -0.1951 0.0000
vn -0.8315 -0.5556 0.0000
vn -0.5556 -0.8315 0.0000
vn -0.1951 -0.9808 0.0000
vn 0.1951 -0.9808 0.0000
vn 0.5556 -0.8315 0.0000
vn 0.8315 -0.5556 0.0000
vn 0.9808 -0.1951 0.0000
vn 0.9808 0.1951 0.0000
vn 0.8315 0.5556 0.0000
vn 0.5556 0.8315 0.0000
vn 0.1951 0.9808 0.0000
vn -0.1951 0.9808 0.0000
vn -0.5556 0.8315 0.0000
vn -0.8315 0.5556 0.0000
vn -0.9808 0.1951 0.0000
vn 0.0000 0.0000 1.0000
vn 0.0000 0.0000 1.0000
vn 0.0000 0.0000 1.0000
vn 0.0000 0.0000 1.0000
vn 0.0000 0.0000 1.0000
vn 0.0000 0.0000 1.0000
vn 0.0000 0.0000 1.0000
vn 0.0000 0.0000 1.0000
vn 0.0000 0.0000 1.0000
vn 0.0000 0.0000 1.0000
vn 0.0000 0.0000 1.0000
vn 0.0000 0.0000 1.0000
vn 0.0000 0.0000 1.0000
vn 0.0000 0.0000 1.0000
vn 0.0000 0.0000 1.0000
vn 0.0000 0.0000 1.0000
vn 0.9808 0.1951 0.0000
vn 0.8315 0.5556 0.0000
vn 0.5556 0.8315 0.0000
vn 0.1951 0.9808 0.0000
vn -0.1951 0.9808 0.0000
vn -0.5556 0.8315 0.0000
vn -0.8315 0.5556 0.0000
vn -0.9808 0.1951 0.0000
vn -0.9808 -0.1951 0.0000
vn -0.8315 -0.5556 0.0000
vn -0.5556 -0.8315 0.0000
vn -0.1951 -0.9808 0.0000
vn 0.1951 -0.9808 0.0000
vn 0.5556 -0.8315 0.0000
vn 0.8315 -0.5556 0.0000
vn 0.9808 -0.1951 0.0000
vn 0.0000 0.0000 1.0000
vn 0.9659 0.2588 0.0000
vn 0.7071 0.7071 0.0000
vn 0.2588 0.9659 0.0000
vn -0.2588 0.9659 0.0000
vn -0.7071 0.7071 0.0000
vn -0.9659 0.2588 0.0000
vn -0.9659 -0.2588 0.0000
vn -0.7071 -0.7071 0.0000
vn -0.2588 -0.9659 0.0000
vn 0.2588 -0.9659 0.0000
vn 0.7071 -0.7071 0.0000
vn 0.9659 -0.2588 0.0000
vn 0.0000 0.0000 -1.0000
vn 0.0000 0.0000 1.0000
vn 0.9659 0.2588 0.0000
vn 0.7071 0.7071 0.0000
vn 0.2588 0.9659 0.0000
vn -0.2588 0.9659 0.0000
vn -0.7071 0.7071 0.0000
vn -0.9659 0.2588 0.0000
vn -0.9659 -0.2588 0.0000
vn -0.7071 -0.7071 0.0000
vn -0.2588 -0.9659 0.0000
vn 0.2588 -0.9659 0.0000
vn 0.7071 -0.7071 0.0000
vn 0.9659 -0.2588 0.0000
vn 0.0000 0.0000 -1.0000
vn 0.0000 0.0000 1.0000
vn 0.9659 0.2588 0.0000
vn 0.7071 0.7071 0.0000
vn 0.2588 0.9659 0.0000
vn -0.2588 0.9659 0.0000
vn -0.7071 0.7071 0.0000
vn -0.9659 0.2588 0.0000
vn -0.9659 -0.2588 0.0000
vn -0.7071 -0.7071 0.0000
vn -0.2588 -0.9659 0.0000
vn 0.2588 -0.9659 0.0000
vn 0.7071 -0.7071 0.0000
vn 0.9659 -0.2588 0.0000
vn -0.9659 -0.2588 0.0000
vn -0.7071 -0.7071 0.0000
vn -0.2588 -0.9659 0.0000
vn 0.2588 -0.9659 0.0000
vn 0.7071 -0.7071 0.0000
vn 0.9659 -0.2588 0.0000
vn 0.9659 0.2588 0.0000
vn 0.7071 0.7071 0.0000
vn 0.2588 0.9659 0.0000
vn -0.2588 0.9659 0.0000
vn -0.7071 0.7071 0.0000
vn -0.9659 0.2588 0.0000
vn 0.0000 0.0000 1.0000
vn 0.0000 0.0000 1.0000
vn 0.0000 0.0000 1.0000
vn 0.0000 0.0000 1.0000
vn 0.0000 0.0000 1.0000
vn 0.0000 0.0000 1.0000
vn 0.0000 0.0000 1.0000
vn 0.0000 0.0000 1.0000
vn 0.0000 0.0000 1.0000
vn 0.0000 0.0000 1.0000
vn 0.0000 0.0000 1.0000
vn 0.0000 0.0000 1.0000
vn 0.9659 0.2588 0.0000
vn 0.7071 0.7071 0.0000
vn 0.2588 0.9659 0.0000
vn -0.2588 0.9659 0.0000
vn -0.7071 0.7071 0.0000
vn -0.9659 0.2588 0.0000
vn -0.9659 -0.2588 0.0000
vn -0.7071 -0.7071 0.0000
vn -0.2588 -0.9659 0.0000
vn 0.2588 -0.9659 0.0000
vn 0.7071 -0.7071 0.0000
vn 0.9659 -0.2588 0.0000
vn 0.0000 0.0000 1.0000
vn 0.9239 0.3827 0.0000
vn 0.3827 0.9239 0.0000
vn -0.3827 0.9239 0.0000
vn -0.9239 0.3827 0.0000
vn -0.9239 -0.3827 0.0000
vn -0.3827 -0.9239 0.0000
vn 0.3827 -0.9239 0.0000
vn 0.9239 -0.3827 0.0000
vn 0.0000 0.0000 -1.0000
vn 0.0000 0.0000 1.0000
vn 0.9239 0.3827 0.0000
vn 0.3827 0.9239 0.0000
vn -0.3827 0.9239 0.0000
vn -0.9239 0.3827 0.0000
vn -0.9239 -0.3827 0.0000
vn -0.3827 -0.9239 0.0000
vn 0.3827 -0.9239 0.0000
vn 0.9239 -0.3827 0.0000
vn -0.9239 -0.3827 0.0000
vn -0.3827 -0.9239 0.0000
vn 0.3827 -0.9239 0.0000
vn 0.9239 -0.3827 0.0000
vn 0.9239 0.3827 0.0000
vn 0.3827 0.9239 0.0000
vn -0.3827 0.9239 0.0000
vn -0.9239 0.3827 0.0000
vn 0.0000 0.0000 1.0000
vn 0.0000 0.0000 1.0000
vn 0.0000 0.0000 1.0000
vn 0.0000 0.0000 1.0000
vn 0.0000 0.0000 1.0000
vn 0.0000 0.0000 1.0000
vn 0.0000 0.0000 1.0000
vn 0.0000 0.0000 1.0000
vn 0.9239 0.3827 0.0000
vn 0.3827 0.9239 0.0000
vn -0.3827 0.9239 0.0000
vn -0.9239 0.3827 0.0000
vn -0.9239 -0.3827 0.0000
vn -0.3827 -0.9239 0.0000
vn 0.3827 -0.9239 0.0000
vn 0.9239 -0.3827 0.0000
vn 0.0000 0.0000 1.0000
vn 0.8660 0.5000 0.0000
vn 0.0000 1.0000 0.0000
vn -0.8660 0.5000 0.0000
vn -0.8660 -0.5000 0.0000
vn -0.0000 -1.0000 0.0000
vn 0.8660 -0.5000 0.0000
vn 0.0000 0.0000 -1.0000
vn 0.0000 0.0000 1.0000
vn 0.7746 0.4472 0.4472
vn 0.0000 0.8944 0.4472
vn -0.7746 0.4472 0.4472
vn -0.7746 -0.4472 0.4472
vn -0.0000 -0.8944 0.4472
vn 0.7746 -0.4472 0.4472
vn 0.0000 0.0000 -1.0000
vn 0.0000 -0.9578 0.2873
vn 0.9578 -0.0000 0.2873
vn 0.0000 0.9578 0.2873
vn -0.9578 0.0000 0.2873
vn 0.8660 0.5000 0.0000
vn 0.0000 1.0000 0.0000
vn -0.8660 0.5000 0.0000
vn -0.8660 -0.5000 0.0000
vn -0.0000 -1.0000 0.0000
vn 0.8660 -0.5000 0.0000
vn 0.0000 0.0000 -1.0000
vn 0.0000 0.0000 1.0000
vn 0.8660 0.5000 0.0000
vn 0.0000 1.0000 0.0000
vn -0.8660 0.5000 0.0000
vn -0.8660 -0.5000 0.0000
vn -0.0000 -1.0000 0.0000
vn 0.8660 -0.5000 0.0000
vn 0.0000 0.0000 -1.0000
vn 0.0000 0.0000 1.0000
vn 0.8660 0.5000 0.0000
vn 0.0000 1.0000 0.0000
vn -0.8660 0.5000 0.0000
vn -0.8660 -0.5000 0.0000
vn -0.0000 -1.0000 0.0000
vn 0.8660 -0.5000 0.0000
vn 0.0000 0.0000 -1.0000
vn 0.0000 0.0000 1.0000
vn 0.8660 0.5000 0.0000
vn 0.0000 1.0000 0.0000
vn -0.8660 0.5000 0.0000
vn -0.8660 -0.5000 0.0000
vn -0.0000 -1.0000 0.0000
vn 0.8660 -0.5000 0.0000
vn 0.0000 0.0000 -1.0000
vn 0.0000 0.0000 1.0000
usemtl stone_dark
f 1//1 3//1 4//1 2//1
f 3//2 5//2 6//2 4//2
f 5//3 7//3 8//3 6//3
f 7//4 9//4 10//4 8//4
f 9//5 11//5 12//5 10//5
f 11//6 13//6 14//6 12//6
f 13//7 15//7 16//7 14//7
f 15//8 17//8 18//8 16//8
f 17//9 19//9 20//9 18//9
f 19//10 21//10 22//10 20//10
f 21//11 23//11 24//11 22//11
f 23//12 1//12 2//12 24//12
f 25//13 3//13 1//13
f 25//13 5//13 3//13
f 25//13 7//13 5//13
f 25//13 9//13 7//13
f 25//13 11//13 9//13
f 25//13 13//13 11//13
f 25//13 15//13 13//13
f 25//13 17//13 15//13
f 25//13 19//13 17//13
f 25//13 21//13 19//13
f 25//13 23//13 21//13
f 25//13 1//13 23//13
f 26//14 2//14 4//14
f 26//14 4//14 6//14
f 26//14 6//14 8//14
f 26//14 8//14 10//14
f 26//14 10//14 12//14
f 26//14 12//14 14//14
f 26//14 14//14 16//14
f 26//14 16//14 18//14
f 26//14 18//14 20//14
f 26//14 20//14 22//14
f 26//14 22//14 24//14
f 26//14 24//14 2//14
usemtl stone_light
f 27//15 29//15 30//15 28//15
f 29//16 31//16 32//16 30//16
f 31//17 33//17 34//17 32//17
f 33//18 35//18 36//18 34//18
f 35//19 37//19 38//19 36//19
f 37//20 39//20 40//20 38//20
f 39//21 41//21 42//21 40//21
f 41//22 43//22 44//22 42//22
f 43//23 45//23 46//23 44//23
f 45//24 47//24 48//24 46//24
f 47//25 49//25 50//25 48//25
f 49//26 27//26 28//26 50//26
f 51//27 29//27 27//27
f 51//27 31//27 29//27
f 51//27 33//27 31//27
f 51//27 35//27 33//27
f 51//27 37//27 35//27
f 51//27 39//27 37//27
f 51//27 41//27 39//27
f 51//27 43//27 41//27
f 51//27 45//27 43//27
f 51//27 47//27 45//27
f 51//27 49//27 47//27
f 51//27 27//27 49//27
f 52//28 28//28 30//28
f 52//28 30//28 32//28
f 52//28 32//28 34//28
f 52//28 34//28 36//28
f 52//28 36//28 38//28
f 52//28 38//28 40//28
f 52//28 40//28 42//28
f 52//28 42//28 44//28
f 52//28 44//28 46//28
f 52//28 46//28 48//28
f 52//28 48//28 50//28
f 52//28 50//28 28//28
f 53//29 57//29 58//29 54//29
f 57//30 61//30 62//30 58//30
f 61//31 65//31 66//31 62//31
f 65//32 69//32 70//32 66//32
f 69//33 73//33 74//33 70//33
f 73//34 77//34 78//34 74//34
f 77//35 81//35 82//35 78//35
f 81//36 85//36 86//36 82//36
f 85//37 89//37 90//37 86//37
f 89//38 93//38 94//38 90//38
f 93//39 97//39 98//39 94//39
f 97//40 101//40 102//40 98//40
f 101//41 105//41 106//41 102//41
f 105//42 109//42 110//42 106//42
f 109//43 113//43 114//43 110//43
f 113//44 53//44 54//44 114//44
usemtl stone_dark
f 59//45 55//45 56//45 60//45
f 63//46 59//46 60//46 64//46
f 67//47 63//47 64//47 68//47
f 71//48 67//48 68//48 72//48
f 75//49 71//49 72//49 76//49
f 79//50 75//50 76//50 80//50
f 83//51 79//51 80//51 84//51
f 87//52 83//52 84//52 88//52
f 91//53 87//53 88//53 92//53
f 95//54 91//54 92//54 96//54
f 99//55 95//55 96//55 100//55
f 103//56 99//56 100//56 104//56
f 107//57 103//57 104//57 108//57
f 111//58 107//58 108//58 112//58
f 115//59 111//59 112//59 116//59
f 55//60 115//60 116//60 56//60
usemtl stone_trim
f 54//61 58//61 60//61 56//61
f 58//62 62//62 64//62 60//62
f 62//63 66//63 68//63 64//63
f 66//64 70//64 72//64 68//64
f 70//65 74//65 76//65 72//65
f 74//66 78//66 80//66 76//66
f 78//67 82//67 84//67 80//67
f 82//68 86//68 88//68 84//68
f 86//69 90//69 92//69 88//69
f 90//70 94//70 96//70 92//70
f 94//71 98//71 100//71 96//71
f 98//72 102//72 104//72 100//72
f 102//73 106//73 108//73 104//73
f 106//74 110//74 112//74 108//74
f 110//75 114//75 116//75 112//75
f 114//76 54//76 56//76 116//76
usemtl water_blue
f 117//77 119//77 120//77 118//77
f 119//78 121//78 122//78 120//78
f 121//79 123//79 124//79 122//79
f 123//80 125//80 126//80 124//80
f 125//81 127//81 128//81 126//81
f 127//82 129//82 130//82 128//82
f 129//83 131//83 132//83 130//83
f 131//84 133//84 134//84 132//84
f 133//85 135//85 136//85 134//85
f 135//86 137//86 138//86 136//86
f 137//87 139//87 140//87 138//87
f 139//88 141//88 142//88 140//88
f 141//89 143//89 144//89 142//89
f 143//90 145//90 146//90 144//90
f 145//91 147//91 148//91 146//91
f 147//92 117//92 118//92 148//92
f 149//93 118//93 120//93
f 149//93 120//93 122//93
f 149//93 122//93 124//93
f 149//93 124//93 126//93
f 149//93 126//93 128//93
f 149//93 128//93 130//93
f 149//93 130//93 132//93
f 149//93 132//93 134//93
f 149//93 134//93 136//93
f 149//93 136//93 138//93
f 149//93 138//93 140//93
f 149//93 140//93 142//93
f 149//93 142//93 144//93
f 149//93 144//93 146//93
f 149//93 146//93 148//93
f 149//93 148//93 118//93
usemtl stone_dark
f 150//94 152//94 153//94 151//94
f 152//95 154//95 155//95 153//95
f 154//96 156//96 157//96 155//96
f 156//97 158//97 159//97 157//97
f 158//98 160//98 161//98 159//98
f 160//99 162//99 163//99 161//99
f 162//100 164//100 165//100 163//100
f 164//101 166//101 167//101 165//101
f 166//102 168//102 169//102 167//102
f 168//103 170//103 171//103 169//103
f 170//104 172//104 173//104 171//104
f 172//105 150//105 151//105 173//105
f 174//106 152//106 150//106
f 174//106 154//106 152//106
f 174//106 156//106 154//106
f 174//106 158//106 156//106
f 174//106 160//106 158//106
f 174//106 162//106 160//106
f 174//106 164//106 162//106
f 174//106 166//106 164//106
f 174//106 168//106 166//106
f 174//106 170//106 168//106
f 174//106 172//106 170//106
f 174//106 150//106 172//106
f 175//107 151//107 153//107
f 175//107 153//107 155//107
f 175//107 155//107 157//107
f 175//107 157//107 159//107
f 175//107 159//107 161//107
f 175//107 161//107 163//107
f 175//107 163//107 165//107
f 175//107 165//107 167//107
f 175//107 167//107 169//107
f 175//107 169//107 171//107
f 175//107 171//107 173//107
f 175//107 173//107 151//107
usemtl stone_trim
f 176//108 178//108 179//108 177//108
f 178//109 180//109 181//109 179//109
f 180//110 182//110 183//110 181//110
f 182//111 184//111 185//111 183//111
f 184//112 186//112 187//112 185//112
f 186//113 188//113 189//113 187//113
f 188//114 190//114 191//114 189//114
f 190//115 192//115 193//115 191//115
f 192//116 194//116 195//116 193//116
f 194//117 196//117 197//117 195//117
f 196//118 198//118 199//118 197//118
f 198//119 176//119 177//119 199//119
f 200//120 178//120 176//120
f 200//120 180//120 178//120
f 200//120 182//120 180//120
f 200//120 184//120 182//120
f 200//120 186//120 184//120
f 200//120 188//120 186//120
f 200//120 190//120 188//120
f 200//120 192//120 190//120
f 200//120 194//120 192//120
f 200//120 196//120 194//120
f 200//120 198//120 196//120
f 200//120 176//120 198//120
f 201//121 177//121 179//121
f 201//121 179//121 181//121
f 201//121 181//121 183//121
f 201//121 183//121 185//121
f 201//121 185//121 187//121
f 201//121 187//121 189//121
f 201//121 189//121 191//121
f 201//121 191//121 193//121
f 201//121 193//121 195//121
f 201//121 195//121 197//121
f 201//121 197//121 199//121
f 201//121 199//121 177//121
usemtl stone_light
f 202//122 206//122 207//122 203//122
f 206//123 210//123 211//123 207//123
f 210//124 214//124 215//124 211//124
f 214//125 218//125 219//125 215//125
f 218//126 222//126 223//126 219//126
f 222//127 226//127 227//127 223//127
f 226//128 230//128 231//128 227//128
f 230//129 234//129 235//129 231//129
f 234//130 238//130 239//130 235//130
f 238//131 242//131 243//131 239//131
f 242//132 246//132 247//132 243//132
f 246//133 202//133 203//133 247//133
usemtl stone_dark
f 208//134 204//134 205//134 209//134
f 212//135 208//135 209//135 213//135
f 216//136 212//136 213//136 217//136
f 220//137 216//137 217//137 221//137
f 224//138 220//138 221//138 225//138
f 228//139 224//139 225//139 229//139
f 232//140 228//140 229//140 233//140
f 236//141 232//141 233//141 237//141
f 240//142 236//142 237//142 241//142
f 244//143 240//143 241//143 245//143
f 248//144 244//144 245//144 249//144
f 204//145 248//145 249//145 205//145
usemtl stone_trim
f 203//146 207//146 209//146 205//146
f 207//147 211//147 213//147 209//147
f 211//148 215//148 217//148 213//148
f 215//149 219//149 221//149 217//149
f 219//150 223//150 225//150 221//150
f 223//151 227//151 229//151 225//151
f 227//152 231//152 233//152 229//152
f 231//153 235//153 237//153 233//153
f 235//154 239//154 241//154 237//154
f 239//155 243//155 245//155 241//155
f 243//156 247//156 249//156 245//156
f 247//157 203//157 205//157 249//157
usemtl water_blue
f 250//158 252//158 253//158 251//158
f 252//159 254//159 255//159 253//159
f 254//160 256//160 257//160 255//160
f 256//161 258//161 259//161 257//161
f 258//162 260//162 261//162 259//162
f 260//163 262//163 263//163 261//163
f 262//164 264//164 265//164 263//164
f 264//165 266//165 267//165 265//165
f 266//166 268//166 269//166 267//166
f 268//167 270//167 271//167 269//167
f 270//168 272//168 273//168 271//168
f 272//169 250//169 251//169 273//169
f 274//170 251//170 253//170
f 274//170 253//170 255//170
f 274//170 255//170 257//170
f 274//170 257//170 259//170
f 274//170 259//170 261//170
f 274//170 261//170 263//170
f 274//170 263//170 265//170
f 274//170 265//170 267//170
f 274//170 267//170 269//170
f 274//170 269//170 271//170
f 274//170 271//170 273//170
f 274//170 273//170 251//170
usemtl stone_dark
f 275//171 277//171 278//171 276//171
f 277//172 279//172 280//172 278//172
f 279//173 281//173 282//173 280//173
f 281//174 283//174 284//174 282//174
f 283//175 285//175 286//175 284//175
f 285//176 287//176 288//176 286//176
f 287//177 289//177 290//177 288//177
f 289//178 275//178 276//178 290//178
f 291//179 277//179 275//179
f 291//179 279//179 277//179
f 291//179 281//179 279//179
f 291//179 283//179 281//179
f 291//179 285//179 283//179
f 291//179 287//179 285//179
f 291//179 289//179 287//179
f 291//179 275//179 289//179
f 292//180 276//180 278//180
f 292//180 278//180 280//180
f 292//180 280//180 282//180
f 292//180 282//180 284//180
f 292//180 284//180 286//180
f 292//180 286//180 288//180
f 292//180 288//180 290//180
f 292//180 290//180 276//180
usemtl stone_light
f 293//181 297//181 298//181 294//181
f 297//182 301//182 302//182 298//182
f 301//183 305//183 306//183 302//183
f 305//184 309//184 310//184 306//184
f 309//185 313//185 314//185 310//185
f 313//186 317//186 318//186 314//186
f 317//187 321//187 322//187 318//187
f 321//188 293//188 294//188 322//188
usemtl stone_dark
f 299//189 295//189 296//189 300//189
f 303//190 299//190 300//190 304//190
f 307//191 303//191 304//191 308//191
f 311//192 307//192 308//192 312//192
f 315//193 311//193 312//193 316//193
f 319//194 315//194 316//194 320//194
f 323//195 319//195 320//195 324//195
f 295//196 323//196 324//196 296//196
usemtl stone_trim
f 294//197 298//197 300//197 296//197
f 298//198 302//198 304//198 300//198
f 302//199 306//199 308//199 304//199
f 306//200 310//200 312//200 308//200
f 310//201 314//201 316//201 312//201
f 314//202 318//202 320//202 316//202
f 318//203 322//203 324//203 320//203
f 322//204 294//204 296//204 324//204
usemtl water_blue
f 325//205 327//205 328//205 326//205
f 327//206 329//206 330//206 328//206
f 329//207 331//207 332//207 330//207
f 331//208 333//208 334//208 332//208
f 333//209 335//209 336//209 334//209
f 335//210 337//210 338//210 336//210
f 337//211 339//211 340//211 338//211
f 339//212 325//212 326//212 340//212
f 341//213 326//213 328//213
f 341//213 328//213 330//213
f 341//213 330//213 332//213
f 341//213 332//213 334//213
f 341//213 334//213 336//213
f 341//213 336//213 338//213
f 341//213 338//213 340//213
f 341//213 340//213 326//213
usemtl gold_accent
f 342//214 344//214 345//214 343//214
f 344//215 346//215 347//215 345//215
f 346//216 348//216 349//216 347//216
f 348//217 350//217 351//217 349//217
f 350//218 352//218 353//218 351//218
f 352//219 342//219 343//219 353//219
f 354//220 344//220 342//220
f 354//220 346//220 344//220
f 354//220 348//220 346//220
f 354//220 350//220 348//220
f 354//220 352//220 350//220
f 354//220 342//220 352//220
f 355//221 343//221 345//221
f 355//221 345//221 347//221
f 355//221 347//221 349//221
f 355//221 349//221 351//221
f 355//221 351//221 353//221
f 355//221 353//221 343//221
f 356//222 357//222 362//222
f 357//223 358//223 362//223
f 358//224 359//224 362//224
f 359//225 360//225 362//225
f 360//226 361//226 362//226
f 361//227 356//227 362//227
f 363//228 357//228 356//228
f 363//228 358//228 357//228
f 363//228 359//228 358//228
f 363//228 360//228 359//228
f 363//228 361//228 360//228
f 363//228 356//228 361//228
f 364//229 365//229 366//229
f 367//230 368//230 369//230
f 370//231 371//231 372//231
f 373//232 374//232 375//232
usemtl water_blue
f 376//233 378//233 379//233 377//233
f 378//234 380//234 381//234 379//234
f 380//235 382//235 383//235 381//235
f 382//236 384//236 385//236 383//236
f 384//237 386//237 387//237 385//237
f 386//238 376//238 377//238 387//238
f 388//239 378//239 376//239
f 388//239 380//239 378//239
f 388//239 382//239 380//239
f 388//239 384//239 382//239
f 388//239 386//239 384//239
f 388//239 376//239 386//239
f 389//240 377//240 379//240
f 389//240 379//240 381//240
f 389//240 381//240 383//240
f 389//240 383//240 385//240
f 389//240 385//240 387//240
f 389//240 387//240 377//240
f 390//241 392//241 393//241 391//241
f 392//242 394//242 395//242 393//242
f 394//243 396//243 397//243 395//243
f 396//244 398//244 399//244 397//244
f 398//245 400//245 401//245 399//245
f 400//246 390//246 391//246 401//246
f 402//247 392//247 390//247
f 402//247 394//247 392//247
f 402//247 396//247 394//247
f 402//247 398//247 396//247
f 402//247 400//247 398//247
f 402//247 390//247 400//247
f 403//248 391//248 393//248
f 403//248 393//248 395//248
f 403//248 395//248 397//248
f 403//248 397//248 399//248
f 403//248 399//248 401//248
f 403//248 401//248 391//248
f 404//249 406//249 407//249 405//249
f 406//250 408//250 409//250 407//250
f 408//251 410//251 411//251 409//251
f 410//252 412//252 413//252 411//252
f 412//253 414//253 415//253 413//253
f 414//254 404//254 405//254 415//254
f 416//255 406//255 404//255
f 416//255 408//255 406//255
f 416//255 410//255 408//255
f 416//255 412//255 410//255
f 416//255 414//255 412//255
f 416//255 404//255 414//255
f 417//256 405//256 407//256
f 417//256 407//256 409//256
f 417//256 409//256 411//256
f 417//256 411//256 413//256
f 417//256 413//256 415//256
f 417//256 415//256 405//256
f 418//257 420//257 421//257 419//257
f 420//258 422//258 423//258 421//258
f 422//259 424//259 425//259 423//259
f 424//260 426//260 427//260 425//260
f 426//261 428//261 429//261 427//261
f 428//262 418//262 419//262 429//262
f 430//263 420//263 418//263
f 430//263 422//263 420//263
f 430//263 424//263 422//263
f 430//263 426//263 424//263
f 430//263 428//263 426//263
f 430//263 418//263 428//263
f 431//264 419//264 421//264
f 431//264 421//264 423//264
f 431//264 423//264 425//264
f 431//264 425//264 427//264
f 431//264 427//264 429//264
f 431//264 429//264 419//264
